<svg width="221" height="110" viewBox="0 0 221 110" fill="none" xmlns="http://www.w3.org/2000/svg">
<g clip-path="url(#clip0_173_3358)">
<path d="M92.854 20.455H109.186V79.3835C109.186 87.6897 104.351 91.8427 94.6814 91.8427H79.377C69.7832 91.8427 64.9863 87.6897 64.9863 79.3835V20.455H81.3186V77.2509C81.3186 79.1214 82.3083 80.057 84.2881 80.057H89.7703C91.8261 80.057 92.854 79.1214 92.854 77.2509V20.455Z" fill="white"/>
<path d="M120.677 20.455H150.943C160.613 20.455 165.448 24.5706 165.448 32.8019V79.3835C165.448 87.6897 160.613 91.8427 150.943 91.8427H120.677V20.455ZM149.116 78.0366V34.2611C149.116 32.3904 148.088 31.455 146.032 31.455H137.01V80.8427H146.032C148.088 80.8427 149.116 79.9072 149.116 78.0366Z" fill="white"/>
<path d="M201.123 77.2509V64.3427C201.123 63.3701 200.894 62.6966 200.437 62.3223C199.98 61.8733 199.181 61.6488 198.039 61.6488H187.988C179.004 61.6488 174.511 57.4582 174.511 49.0774V32.8019C174.511 24.5706 179.308 20.455 188.902 20.455H202.836C212.43 20.455 217.226 24.5706 217.226 32.8019V42.1182H200.894V35.0468C200.894 33.1761 199.866 32.2407 197.81 32.2407H193.927C191.871 32.2407 190.844 33.1761 190.844 35.0468V47.6182C190.844 48.5911 191.072 49.3019 191.529 49.7509C191.986 50.125 192.785 50.3121 193.927 50.3121H203.749C208.622 50.3121 212.125 51.3597 214.257 53.455C216.389 55.4754 217.455 58.506 217.455 62.5468V79.3835C217.455 87.6897 212.658 91.8427 203.064 91.8427H189.245C179.575 91.8427 174.74 87.6897 174.74 79.3835V70.1794H191.072V77.2509C191.072 79.1214 192.1 80.057 194.156 80.057H198.039C200.095 80.057 201.123 79.1214 201.123 77.2509Z" fill="white"/>
<path d="M23.8656 82.514L19.7991 91.9246L19.1104 101.194H28.5453L30.382 100.177L35.7001 100.359L35.7819 102.831H45.6665L46.3773 100.359H53.8434C53.8434 100.359 51.7521 82.2884 48.1825 79.8723C34.6308 88.9187 23.8624 82.523 23.8624 82.523" fill="white"/>
<path d="M48.3643 93.0645L48.9147 99.9513H46.2949L48.3643 93.0645Z" fill="#2494D1"/>
<path d="M22.4629 85.1091C22.4629 85.1091 30.665 89.9228 40.4993 85.1091C48.3617 81.2687 23.8656 82.5135 23.8656 82.5135L22.4629 85.1091Z" fill="#2494D1"/>
<path d="M53.9033 104.169H45.8867L46.3742 100.347H53.8435C53.8435 100.347 53.9222 102.924 53.9095 104.169" fill="#EB2126"/>
<path d="M53.9027 105.401H45.8862C45.7075 105.402 45.5306 105.367 45.3672 105.295C45.2039 105.224 45.0578 105.12 44.9388 104.989C44.8197 104.857 44.7304 104.703 44.6769 104.536C44.6234 104.368 44.6068 104.191 44.6282 104.017L45.1252 100.208C45.1636 99.9075 45.313 99.6314 45.5449 99.4321C45.7767 99.2329 46.075 99.124 46.3831 99.1263H53.8429C54.1697 99.1263 54.4836 99.2508 54.7183 99.4742C54.9531 99.697 55.0903 100.001 55.1009 100.322C55.1009 100.322 55.1796 102.933 55.167 104.194C55.1596 104.517 55.0229 104.825 54.7865 105.052C54.55 105.277 54.2326 105.403 53.9027 105.401ZM47.2983 102.93H52.6448C52.6448 102.469 52.6259 102.003 52.6164 101.577H47.4839L47.2983 102.93Z" fill="#144A8F"/>
<path d="M51.1704 80.8085C51.1704 80.8085 56.7213 73.6001 65.4295 75.6087C74.1382 77.6168 76.4121 72.5439 76.4121 72.5439C76.4121 72.5439 72.0847 88.1027 61.0015 83.8116C61.0015 83.8116 62.7033 85.2141 64.2726 86.5644C60.9479 88.9092 57.9321 90.3027 51.9661 86.7743" fill="#2494D1"/>
<path d="M50.9531 81.2968C50.9531 81.2968 56.0448 73.9464 63.1746 75.5841C70.3043 77.2212 74.6003 75.4915 74.6003 75.4915C74.6003 75.4915 69.6373 85.4768 61.7058 80.8607C60.325 79.8909 58.4759 80.107 57.5731 81.3428C56.6707 82.5786 57.0575 84.3706 58.4382 85.341C56.3499 86.1721 53.5697 85.112 52.079 84.136" fill="white"/>
<path d="M26.1668 83.5579C26.1668 83.5579 27.038 81.3551 23.8679 82.5135C20.6978 83.6724 18.6504 101.234 18.6504 101.234H20.0719C20.8519 101.234 22.4181 101.088 22.3646 100.325C22.3646 100.325 22.4621 95.1348 22.83 92.2395C23.566 89.5793 26.1668 83.5579 26.1668 83.5579Z" fill="#2494D1"/>
<path d="M64.2997 42.0556C64.2997 58.8293 50.6912 85.112 33.9065 85.112C17.1218 85.112 3.52295 58.8293 3.52295 42.0556C3.52295 25.2822 17.1312 18.5747 33.9159 18.5747C50.7006 18.5747 64.3088 25.2946 64.3088 42.0556" fill="white"/>
<path d="M33.9081 86.3449C16.4378 86.3449 2.2666 59.5459 2.2666 42.0555C2.2666 26.3419 13.8023 17.3387 33.9175 17.3387C54.0328 17.3387 65.5653 26.3542 65.5653 42.0555C65.5561 59.5459 51.3784 86.3449 33.9081 86.3449ZM33.9081 19.795C25.1462 19.795 4.76999 21.9577 4.76999 42.0555C4.76999 58.1894 18.1047 83.8795 33.9081 83.8795C49.7116 83.8795 63.0463 58.1894 63.0463 42.0555C63.0463 21.9639 42.6669 19.795 33.9081 19.795Z" fill="#144A8F"/>
<path d="M7.87052 39.2595C7.87052 39.2595 4.88281 39.7291 3.41411 39.1297C1.43906 38.3233 4.64693 35.9011 4.64693 35.9011L7.87052 39.2595Z" fill="#2494D1"/>
<path d="M41.2156 36.1296C41.2156 39.868 38.6996 41.1162 33.9822 42.8773C28.6357 42.8773 17.8516 39.868 17.8516 36.1296C17.8516 32.3912 29.6264 29.3572 34.9728 29.3572C40.3193 29.3572 41.2061 32.3881 41.2061 36.1296" fill="#2494D1"/>
<path d="M38.4958 69.7939C38.4958 69.7939 36.8352 62.9969 42.037 60.7138C41.0526 63.3274 39.0242 68.9997 40.2947 71.0022C41.5653 73.0041 38.4958 69.7939 38.4958 69.7939Z" fill="#2494D1"/>
<path d="M33.9081 86.3449C16.4378 86.3449 2.2666 59.5459 2.2666 42.0555C2.2666 26.3419 13.8023 17.3387 33.9175 17.3387C54.0328 17.3387 65.5653 26.3542 65.5653 42.0555C65.5561 59.5459 51.3784 86.3449 33.9081 86.3449ZM33.9081 19.795C25.1462 19.795 4.76999 21.9577 4.76999 42.0555C4.76999 58.1894 18.1047 83.8795 33.9081 83.8795C49.7116 83.8795 63.0463 58.1894 63.0463 42.0555C63.0463 21.9639 42.6669 19.795 33.9081 19.795Z" fill="#144A8F"/>
<path d="M24.1802 47.9257C24.1802 47.9257 25.8784 55.0317 37.2318 56.0977C37.9928 56.1684 38.4426 55.2511 38.0337 54.6178C37.4991 53.7867 35.7945 52.4396 35.7694 51.3366C38.2853 51.6239 42.3738 52.8227 44.525 51.6795C44.6725 51.6 44.7946 51.4817 44.8776 51.3378C44.9605 51.1939 45.0009 51.0301 44.9944 50.8649C44.9879 50.6996 44.9346 50.5395 44.8406 50.4023C44.7465 50.2651 44.6155 50.1564 44.462 50.0884C43.0688 49.4705 43.138 47.1657 42.4933 45.9854" fill="#2494D1"/>
<path d="M24.5161 45.6673C24.5161 45.6673 25.4942 53.4994 39.6339 52.4891C38.7943 51.4201 37.9011 50.2738 37.8634 48.7167C40.6686 49.0257 44.213 49.1091 45.9994 47.0545C44.3326 46.7672 42.4645 45.5097 41.6908 44.0854" fill="white"/>
<path d="M37.1752 53.8145C24.4161 53.8145 23.309 46.1616 23.265 45.8187C23.2458 45.5055 23.3486 45.1968 23.5525 44.9553C23.7564 44.7138 24.0462 44.5576 24.3631 44.5183C24.68 44.479 25.0002 44.5596 25.2589 44.7437C25.5175 44.9278 25.6952 45.2017 25.7558 45.5098C25.7967 45.7847 26.7716 51.3491 37.1783 51.3491H37.323C36.8761 50.5504 36.6292 49.6587 36.6028 48.7476C36.6006 48.5735 36.6359 48.401 36.7064 48.2413C36.7769 48.0816 36.8809 47.9382 37.0116 47.8208C37.1448 47.7029 37.3021 47.6144 37.473 47.561C37.6438 47.5078 37.8243 47.491 38.0023 47.5118C40.2667 47.7713 42.009 47.7126 43.267 47.3326C42.1522 46.6966 41.2254 45.7862 40.578 44.691C40.4601 44.4086 40.4526 44.0934 40.5571 43.806C40.6616 43.5186 40.8707 43.2794 41.144 43.1343C41.4174 42.9893 41.7357 42.9488 42.0377 43.0206C42.3397 43.0924 42.6039 43.2714 42.7795 43.5231C43.3582 44.5859 44.8929 45.6364 46.1981 45.8619C46.4153 45.9007 46.6183 45.9948 46.7868 46.135C46.9553 46.2751 47.0832 46.4564 47.1578 46.6605C47.2324 46.8647 47.251 47.0845 47.2117 47.2979C47.1724 47.5113 47.0766 47.7108 46.934 47.8764C45.1382 49.9464 42.1128 50.2523 39.4773 50.1163C39.801 50.6972 40.18 51.2465 40.6095 51.7569C40.7472 51.9336 40.8338 52.1435 40.8601 52.3645C40.8864 52.5855 40.8515 52.8094 40.7591 53.0126C40.6666 53.2157 40.5201 53.3906 40.3349 53.5187C40.1497 53.6468 39.9327 53.7234 39.7069 53.7404C38.8242 53.7919 37.9803 53.8166 37.1752 53.8145Z" fill="#144A8F"/>
<path d="M43.2947 34.7549C43.2947 37.1957 39.093 41.6848 33.907 41.6848C28.7209 41.6848 24.5161 37.1957 24.5161 34.7549C24.5161 32.3141 28.2743 1.2359 33.4635 1.2359C38.6527 1.2359 43.2947 32.3172 43.2947 34.7549Z" fill="white"/>
<path d="M33.9079 42.9206C28.1337 42.9206 23.2622 37.9062 23.2622 34.7548C23.2622 34.3995 26.4355 0 33.4645 0C40.5784 0 44.5536 34.4088 44.5536 34.7548C44.5536 37.9062 39.6915 42.9206 33.9079 42.9206ZM33.4645 2.46859C30.2408 2.46859 25.775 29.8979 25.775 34.7548C25.775 36.4078 29.2942 40.452 33.9079 40.452C38.5215 40.452 42.0408 36.4078 42.0408 34.7548C42.0408 33.6549 40.8834 25.3192 39.0971 17.3481C35.8515 2.88568 33.4865 2.46859 33.4645 2.46859Z" fill="#144A8F"/>
<path d="M39.5489 78.4755C39.681 79.1304 38.5866 78.4418 37.4544 78.6612C36.3221 78.8801 35.5674 79.9279 35.4479 79.2791C35.3283 78.6304 35.9951 77.2615 37.1273 77.0387C38.2595 76.8165 39.4168 77.8239 39.5489 78.4816" fill="#144A8F"/>
<path d="M28.3688 78.4755C28.2367 79.1304 29.3311 78.4418 30.4634 78.6612C31.5955 78.8801 32.3503 79.9279 32.4698 79.2791C32.5894 78.6304 31.9226 77.2615 30.7904 77.0387C29.6582 76.8165 28.5009 77.8239 28.3688 78.4816" fill="#144A8F"/>
<path d="M16.4174 24.6734C16.4174 24.6734 8.99532 21.0648 2.133 21.4974C-0.304345 28.4273 2.48838 35.3572 7.79393 38.0575" fill="white"/>
<path d="M7.77886 39.2935C7.5775 39.2926 7.37917 39.245 7.20015 39.1545C1.10836 36.0433 -1.58058 28.2791 0.944825 21.0928C1.02598 20.863 1.17429 20.662 1.37121 20.5147C1.56812 20.3674 1.80489 20.2805 2.05186 20.2647C9.18464 19.8013 16.6602 23.413 16.9747 23.5675C17.2543 23.7232 17.4627 23.978 17.5571 24.2798C17.6515 24.5816 17.6247 24.9075 17.4823 25.1905C17.3398 25.4735 17.0926 25.6922 16.7911 25.8018C16.4897 25.9114 16.157 25.9035 15.8614 25.7797C15.7954 25.7488 9.25699 22.6283 3.06453 22.6901C1.39141 28.4985 3.58346 34.5263 8.35751 36.964C8.60581 37.0923 8.80334 37.2985 8.91864 37.5498C9.03399 37.801 9.06049 38.0829 8.99396 38.3507C8.92743 38.6184 8.77176 38.8567 8.55156 39.0275C8.33136 39.1984 8.05942 39.292 7.77886 39.2935Z" fill="#144A8F"/>
<path d="M4.54587 26.1226C4.37919 27.1545 4.59305 31.4737 8.50538 34.4984C8.5365 34.531 8.57836 34.5516 8.62353 34.5567C8.6687 34.5617 8.71427 34.5509 8.75202 34.526C8.78977 34.5011 8.81735 34.4639 8.8298 34.4209C8.84219 34.378 8.83871 34.3321 8.81986 34.2914C8.57334 33.6224 8.41173 32.9262 8.33869 32.2183C8.3356 32.1767 8.34446 32.1351 8.36433 32.0981C8.38414 32.0613 8.41413 32.0306 8.4509 32.0096C8.48762 31.9887 8.52959 31.9783 8.57208 31.9797C8.61451 31.9811 8.65568 31.9942 8.69092 32.0175C9.04949 32.2554 9.48977 32.4222 10.342 32.2461C10.4056 32.2326 10.4651 32.2046 10.5157 32.1643C10.5663 32.1241 10.6065 32.0727 10.6331 32.0143C10.6598 31.956 10.672 31.8924 10.669 31.8285C10.666 31.7647 10.6477 31.7024 10.6157 31.6467C10.4236 31.3663 10.2899 31.0513 10.2226 30.7198C10.2142 30.6636 10.2185 30.6062 10.2353 30.5519C10.2521 30.4975 10.2809 30.4474 10.3196 30.4052C10.3584 30.363 10.4061 30.3297 10.4595 30.3077C10.5128 30.2858 10.5704 30.2756 10.6282 30.278C12.1189 30.3306 13.2826 30.5128 14.2135 29.8578" fill="#2494D1"/>
<path d="M13.6762 28.931C11.1025 27.7479 8.38361 26.8974 5.5874 26.4006L13.6762 28.931Z" fill="white"/>
<path d="M13.6763 30.1638C13.4834 30.1628 13.2933 30.1195 13.1196 30.0372C10.6549 28.9082 8.05256 28.0951 5.37672 27.618C5.05924 27.5515 4.78019 27.3671 4.59792 27.1032C4.41564 26.8394 4.34425 26.5165 4.39867 26.2021C4.45308 25.8877 4.6291 25.6062 4.88992 25.4164C5.15073 25.2265 5.47615 25.1431 5.79813 25.1834C8.71527 25.6977 11.5511 26.5858 14.233 27.825C14.4847 27.95 14.6863 28.1544 14.8056 28.4054C14.9249 28.6565 14.9548 28.9396 14.8906 29.2094C14.8263 29.4792 14.6718 29.7199 14.4516 29.893C14.2313 30.0661 13.9583 30.1615 13.6763 30.1638Z" fill="#144A8F"/>
<path d="M51.3936 24.6734C51.3936 24.6734 58.819 21.0648 65.6814 21.4974C68.1187 28.4273 65.3256 35.3572 60.0199 38.0575" fill="white"/>
<path d="M60.0368 39.2934C59.7559 39.2925 59.4835 39.1994 59.2625 39.0288C59.0421 38.8582 58.8856 38.6199 58.8188 38.352C58.752 38.0841 58.7782 37.8018 58.8936 37.5503C59.0084 37.2987 59.2065 37.0923 59.4549 36.9638C64.2227 34.5261 66.4241 28.4984 64.7509 22.6961C58.5207 22.5972 52.0201 25.7486 51.9572 25.7795C51.6616 25.9033 51.3289 25.9112 51.0275 25.8016C50.7261 25.6921 50.4788 25.4733 50.3364 25.1903C50.1939 24.9073 50.1672 24.5815 50.2615 24.2796C50.3559 23.9779 50.5643 23.723 50.8439 23.5673C51.1584 23.416 58.6526 19.8166 65.7697 20.2646C66.017 20.2803 66.2534 20.3672 66.4504 20.5146C66.6474 20.6618 66.7959 20.8629 66.877 21.0926C69.3931 28.279 66.7137 36.0431 60.6182 39.1543C60.4389 39.246 60.239 39.2937 60.0368 39.2934Z" fill="#144A8F"/>
<path d="M63.2779 26.1226C63.4446 27.1545 63.231 31.4737 59.3187 34.4984C59.2873 34.531 59.2456 34.5516 59.2005 34.5567C59.1554 34.5617 59.1097 34.5509 59.072 34.526C59.0343 34.5011 59.0063 34.4639 58.9944 34.4209C58.9818 34.378 58.9852 34.3321 59.0041 34.2914C59.249 33.622 59.4107 32.9259 59.4849 32.2183C59.4883 32.1767 59.4792 32.1351 59.4598 32.0981C59.4398 32.0613 59.4095 32.0306 59.373 32.0096C59.3364 31.9887 59.2942 31.9783 59.2519 31.9797C59.2091 31.9811 59.168 31.9942 59.1331 32.0175C58.7745 32.2554 58.3342 32.4222 57.4816 32.2461C57.4182 32.2326 57.3588 32.2046 57.308 32.1643C57.2578 32.1241 57.2172 32.0727 57.191 32.0143C57.1641 31.956 57.1521 31.8924 57.155 31.8285C57.1578 31.7647 57.1761 31.7024 57.2081 31.6467C57.3988 31.3656 57.5324 31.0508 57.6015 30.7198C57.6095 30.6636 57.6055 30.6062 57.5884 30.5519C57.5718 30.4975 57.5427 30.4474 57.5045 30.4052C57.4656 30.363 57.4177 30.3297 57.3646 30.3077C57.3109 30.2858 57.2532 30.2756 57.1955 30.278C55.7049 30.3306 54.5413 30.5128 53.6104 29.8578" fill="#2494D1"/>
<path d="M54.1357 28.931C56.7105 27.7476 59.4307 26.897 62.2278 26.4006L54.1357 28.931Z" fill="white"/>
<path d="M54.1386 30.1638C53.8563 30.1622 53.5828 30.0673 53.3621 29.8944C53.1414 29.7216 52.9862 29.4809 52.9216 29.2109C52.857 28.941 52.8867 28.6575 53.0058 28.4061C53.1251 28.1547 53.3269 27.9501 53.5788 27.825C56.2627 26.5852 59.1006 25.6971 62.0199 25.1834C62.3419 25.1431 62.6674 25.2265 62.9284 25.4164C63.1888 25.6062 63.3647 25.8877 63.4195 26.2021C63.4738 26.5165 63.4024 26.8394 63.2202 27.1032C63.0381 27.3671 62.7588 27.5515 62.4413 27.618C59.7647 28.0954 57.1613 28.9085 54.6953 30.0372C54.5216 30.1195 54.3315 30.1628 54.1386 30.1638Z" fill="#144A8F"/>
<path d="M58.7716 67.5383C55.5732 74.3359 49.2769 78.1606 44.7073 76.0874C40.1376 74.0143 39.0274 66.8188 42.2228 60.0213C45.418 53.2244 51.7174 49.3964 56.287 51.4726C60.8565 53.5488 61.9701 60.7413 58.7716 67.5383Z" fill="white"/>
<path d="M47.3862 77.8884C46.28 77.8935 45.1862 77.6606 44.1815 77.206C41.5743 76.0223 39.8446 73.4677 39.3099 70.0099C38.8036 66.7414 39.4357 63.0092 41.0837 59.5055C44.5683 52.0906 51.6287 47.9999 56.8085 50.3542C61.9883 52.7085 63.3879 60.6515 59.9062 68.0546C58.2553 71.5578 55.7707 74.447 52.9088 76.1862C51.0564 77.3171 49.1694 77.8884 47.3862 77.8884ZM53.6447 52.1523C50.0374 52.1523 45.7288 55.5138 43.3638 60.5404C41.9202 63.6114 41.3604 66.8435 41.7913 69.6395C42.1939 72.2504 43.4172 74.1439 45.2319 74.9661C47.0466 75.7878 49.3203 75.4785 51.591 74.0884C54.0378 72.5994 56.1827 70.0908 57.626 67.0192C60.479 60.9574 59.6235 54.3521 55.7581 52.5941C55.0947 52.2975 54.3735 52.1467 53.6447 52.1523Z" fill="#144A8F"/>
<path d="M52.3464 63.7663C52.347 64.8192 52.0298 65.8485 51.4349 66.724C50.84 67.6001 49.994 68.2825 49.0041 68.686C48.0142 69.0895 46.9248 69.1956 45.8735 68.9908C44.8223 68.7859 43.8564 68.2797 43.0982 67.5355C42.3399 66.7913 41.8232 65.8434 41.6135 64.8108C41.4038 63.7781 41.5105 62.7079 41.9201 61.7347C42.3296 60.7621 43.0237 59.9304 43.9144 59.345C44.8052 58.7591 45.8527 58.4465 46.9244 58.4459C48.3608 58.4465 49.7381 59.0071 50.754 60.005C51.77 61.0023 52.3415 62.3549 52.3432 63.7663" fill="#144A8F"/>
<path d="M9.0427 67.5383C12.238 74.3358 18.5342 78.1606 23.1038 76.0874C27.6735 74.0143 28.7868 66.8188 25.5884 60.0218C22.39 53.2245 16.1032 49.3996 11.5241 51.4758C6.94502 53.552 5.84425 60.7447 9.0427 67.5417" fill="white"/>
<path d="M20.4251 77.8884C18.6419 77.8884 16.7549 77.3171 14.8994 76.1862C12.0375 74.447 9.55297 71.5516 7.90186 68.0546C4.42036 60.6392 5.80727 52.7114 10.9996 50.3541C16.192 47.9968 23.2461 52.1028 26.7245 59.5055C28.3725 63.0092 29.0014 66.7414 28.4951 70.0099C27.9604 73.4671 26.2307 76.0223 23.6267 77.206C22.6229 77.66 21.5302 77.8929 20.4251 77.8884ZM14.1698 52.1522C13.4399 52.1459 12.7174 52.2967 12.0532 52.594C8.18802 54.352 7.33577 60.9574 10.1819 67.0192C11.6255 70.0902 13.7704 72.5994 16.2203 74.0884C18.5067 75.4909 20.7647 75.8001 22.5794 74.9656C24.3941 74.1316 25.6143 72.2498 26.02 69.6395C26.4508 66.8435 25.8942 63.6114 24.4475 60.5404C22.0793 55.5137 17.777 52.1522 14.1698 52.1522Z" fill="#144A8F"/>
<path d="M9.0427 67.5383C12.238 74.3358 18.5342 78.1606 23.1038 76.0874C27.6735 74.0143 28.7868 66.8188 25.5884 60.0218C22.39 53.2245 16.1032 49.3996 11.5241 51.4758C6.94502 53.552 5.84425 60.7447 9.0427 67.5417" fill="white"/>
<path d="M20.4251 77.8884C18.6419 77.8884 16.7549 77.3171 14.8994 76.1862C12.0375 74.447 9.55297 71.5516 7.90186 68.0546C4.42036 60.6392 5.80727 52.7114 10.9996 50.3541C16.192 47.9968 23.2461 52.1028 26.7245 59.5055C28.3725 63.0092 29.0014 66.7414 28.4951 70.0099C27.9604 73.4671 26.2307 76.0223 23.6267 77.206C22.6229 77.66 21.5302 77.8929 20.4251 77.8884ZM14.1698 52.1522C13.4399 52.1459 12.7174 52.2967 12.0532 52.594C8.18802 54.352 7.33577 60.9574 10.1819 67.0192C11.6255 70.0902 13.7704 72.5994 16.2203 74.0884C18.5067 75.4909 20.7647 75.8001 22.5794 74.9656C24.3941 74.1316 25.6143 72.2498 26.02 69.6395C26.4508 66.8435 25.8942 63.6114 24.4475 60.5404C22.0793 55.5137 17.777 52.1522 14.1698 52.1522Z" fill="#144A8F"/>
<path d="M15.4751 63.7663C15.4745 64.8192 15.7918 65.8485 16.3868 66.7245C16.9818 67.6001 17.8279 68.2831 18.818 68.6866C19.8081 69.0901 20.8978 69.1956 21.9491 68.9908C23.0005 68.7854 23.9663 68.2791 24.7244 67.5344C25.4826 66.7902 25.999 65.8417 26.2083 64.8091C26.4177 63.7764 26.3106 62.7056 25.9005 61.733C25.4905 60.7599 24.7959 59.9281 23.9047 59.3433C23.0135 58.758 21.9658 58.4459 20.8939 58.4459C19.4573 58.4459 18.0795 59.006 17.0633 60.0039C16.0472 61.0017 15.476 62.3549 15.4751 63.7663Z" fill="#144A8F"/>
<path d="M26.3283 63.7663C26.3289 64.8192 26.0115 65.849 25.4164 66.7245C24.8212 67.6006 23.9749 68.2836 22.9846 68.6866C21.9944 69.0901 20.9045 69.1956 19.8531 68.9902C18.8017 68.7854 17.8358 68.278 17.0778 67.5333C16.3199 66.7885 15.8037 65.8401 15.5947 64.8068C15.3857 63.7742 15.4933 62.7034 15.9038 61.7308C16.3143 60.7576 17.0094 59.9264 17.9009 59.3416C18.7925 58.7568 19.8407 58.4454 20.9127 58.4459C22.3487 58.4465 23.7257 59.0077 24.7412 60.005C25.7566 61.0029 26.3274 62.3554 26.3283 63.7663Z" fill="#144A8F"/>
<path d="M26.2973 60.9697C26.2973 61.5809 26.1128 62.1786 25.7672 62.6865C25.4217 63.1944 24.9305 63.5906 24.3558 63.8241C23.7811 64.0581 23.1488 64.1193 22.5387 64.0003C21.9287 63.8808 21.3683 63.5867 20.9285 63.1546C20.4886 62.7224 20.1891 62.1719 20.0678 61.5725C19.9464 60.9737 20.0087 60.3524 20.2467 59.7878C20.4848 59.2232 20.8879 58.7405 21.405 58.401C21.9222 58.0615 22.5303 57.8802 23.1523 57.8802C23.9864 57.8802 24.7863 58.2057 25.3761 58.7854C25.9659 59.3646 26.2973 60.1503 26.2973 60.9697Z" fill="white"/>
<path d="M27.3431 75.6177C26.5581 76.5746 26.1665 77.7862 26.2457 79.0131C26.3248 80.2394 26.869 81.3927 27.7709 82.2446C29.0917 83.4804 31.982 84.2128 33.4632 84.3397C33.4632 84.3397 22.6634 83.6415 19.0278 78.4075C20.6003 76.8131 24.6888 74.6445 25.909 73.1152C27.1293 71.5858 29.7176 68.6136 31.441 70.1025" fill="#2494D1"/>
<path d="M29.7241 69.7074C29.7241 69.7074 31.7872 58.1647 22.8271 54.8619C24.7582 59.1345 28.7554 68.4284 26.8402 71.9136C24.9249 75.3983 29.7241 69.7074 29.7241 69.7074Z" fill="#2494D1"/>
<path d="M33.901 86.3449C27.8784 86.3449 21.8211 83.1779 16.3804 77.1902C16.2859 77.0836 16.2094 76.9624 16.1539 76.8316C12.9209 75.3056 9.86395 72.1976 7.9015 68.0574C4.42002 60.6425 5.81011 52.7114 10.9993 50.3541C13.6033 49.1707 16.7074 49.5322 19.7329 51.3736C22.5979 53.113 25.0793 56.008 26.7304 59.5055C28.3469 62.9441 28.9131 66.5 28.5357 69.5587C30.03 68.1938 32.0047 67.4507 34.045 67.4861C36.0852 67.5209 38.0323 68.3319 39.477 69.7473L43.9491 74.1159C44.1606 74.3516 44.2731 74.6569 44.2636 74.9706C44.2541 75.2843 44.1234 75.5829 43.8981 75.8057C43.6727 76.0279 43.3695 76.1581 43.0502 76.1694C42.7308 76.18 42.4192 76.0712 42.1785 75.8646L37.7032 71.4932C36.6958 70.5066 35.3313 69.9527 33.9088 69.9527C32.4864 69.9527 31.1219 70.5066 30.1144 71.4932L25.7397 75.772C25.7001 75.8096 25.6581 75.845 25.6139 75.877C25.0329 76.4253 24.3634 76.8754 23.6327 77.2088C22.6698 77.6409 21.6247 77.8671 20.5663 77.8732C23.9597 80.9628 28.5576 83.8789 33.901 83.8789C34.2346 83.8789 34.5546 84.0091 34.7905 84.2409C35.0264 84.4727 35.159 84.7875 35.159 85.1153C35.159 85.443 35.0264 85.7573 34.7905 85.9891C34.5546 86.2209 34.2346 86.3511 33.901 86.3511V86.3449ZM10.1816 67.0192C13.0844 73.1982 18.6385 76.7547 22.579 74.9655C26.4443 73.2106 27.2965 66.6055 24.4661 60.5404C23.0225 57.4727 20.8776 54.9606 18.4277 53.4714C16.1413 52.0811 13.8832 51.7722 12.0686 52.594C8.20342 54.3489 7.35112 60.9574 10.1973 67.0192H10.1816Z" fill="#144A8F"/>
<path d="M58.3688 89.833C56.482 89.833 54.5006 89.3323 52.3935 88.3378C52.107 88.188 51.8904 87.9355 51.7889 87.633C51.6874 87.3299 51.7089 87.0005 51.849 86.7131C51.989 86.4252 52.2368 86.2018 52.5404 86.0896C52.8441 85.9773 53.1802 85.9846 53.4785 86.1098C57.4631 87.982 60.1459 87.4943 62.2029 86.419C61.1179 85.4919 60.2247 84.7662 60.2213 84.7662C59.998 84.5771 59.8496 84.3167 59.8022 84.031C59.7542 83.7453 59.8101 83.4518 59.9598 83.2026C60.1094 82.9529 60.3441 82.7632 60.6216 82.6661C60.8992 82.569 61.203 82.5707 61.4794 82.6712C63.835 83.5983 65.9359 83.5613 67.8981 82.5971C70.3793 81.3798 72.1787 78.8711 73.3734 76.6251C71.4866 77.3508 68.8163 77.6628 65.1433 76.8198C57.3717 75.0278 52.3809 81.2995 52.1734 81.5684C51.967 81.8153 51.6713 81.9741 51.3482 82.0117C51.0252 82.0493 50.7 81.9623 50.4408 81.7693C50.1816 81.5762 50.0086 81.2917 49.9581 80.9763C49.9076 80.6603 49.9836 80.3382 50.17 80.0761C50.4184 79.7668 56.3215 72.2532 65.7189 74.4161C73.2066 76.1396 75.1882 72.2071 75.2699 72.0399C75.4029 71.7593 75.6382 71.5376 75.9294 71.4192C76.2207 71.3008 76.5462 71.294 76.8426 71.4007C77.1361 71.5073 77.3788 71.7177 77.5233 71.9905C77.6677 72.2638 77.7032 72.5798 77.6226 72.8772C77.5216 73.242 75.0751 81.8372 69.0242 84.7999C67.8501 85.3858 66.5646 85.7237 65.2501 85.7916C65.3586 85.9223 65.4385 86.0733 65.4853 86.2349C65.5322 86.3971 65.5447 86.5666 65.5219 86.7339C65.4996 86.9006 65.4431 87.0616 65.3551 87.2059C65.2672 87.3507 65.1501 87.4758 65.0114 87.5746C62.8727 89.0854 60.6901 89.833 58.3688 89.833Z" fill="#144A8F"/>
<path d="M29.3976 102.077H19.1104V106.26H29.3976V102.077Z" fill="#EB2126"/>
<path d="M45.3329 103.952H35.0488V108.136H45.3329V103.952Z" fill="#EB2126"/>
<path d="M40.0217 108.679C39.688 108.679 39.368 108.549 39.1321 108.317C38.8962 108.086 38.7637 107.771 38.7637 107.444V105.738C38.7637 105.41 38.8962 105.096 39.1321 104.864C39.368 104.632 39.688 104.502 40.0217 104.502C40.3553 104.502 40.6753 104.632 40.9112 104.864C41.1471 105.096 41.2796 105.41 41.2796 105.738V107.444C41.2796 107.771 41.1471 108.086 40.9112 108.317C40.6753 108.549 40.3553 108.679 40.0217 108.679Z" fill="#144A8F"/>
<path d="M19.2894 101.623C19.2894 101.623 20.7109 101.623 21.8053 101.561C22.1513 101.546 22.3997 102.003 22.2677 102.423C21.7613 104.048 22.1985 105.361 21.8148 105.868C21.3556 106.464 18.7925 105.54 18.7925 105.54L19.2894 101.623Z" fill="#A62126"/>
<path d="M34.9009 103.671C34.9009 103.671 36.3099 103.489 37.3885 103.3C37.7282 103.242 38.0175 103.665 37.9546 104.098C37.6622 105.772 38.2692 107.02 37.9546 107.57C37.5741 108.222 34.9134 107.62 34.9134 107.62L34.9009 103.671Z" fill="#A62126"/>
<path d="M29.2122 33.1945C29.2122 33.1945 34.4769 37.5447 38.0779 36.593C40.2542 36.0153 37.9552 40.6095 29.5172 39.4571C20.7365 38.2521 25.2873 29.4561 25.2873 29.4561L29.2122 33.1945Z" fill="#EB2126"/>
<path d="M30.3653 24.1821C30.9691 25.5848 35.5576 27.7042 38.7498 27.525C38.9608 27.5103 39.1706 27.5657 39.3457 27.6823C39.5208 27.7988 39.6509 27.9697 39.7153 28.1677C40.4795 30.5961 40.5047 33.3922 39.8631 34.5168C39.2341 35.592 25.2264 33.0585 25.1666 27.2563C25.1069 21.454 27.4719 21.3397 27.4719 21.3397L30.3653 24.1821Z" fill="#EB2126"/>
<path d="M30.4573 14.484C30.9322 15.8217 34.5207 17.9474 36.936 18.1606C37.2201 18.1869 37.4902 18.2938 37.7135 18.4683C37.9369 18.6427 38.1038 18.8771 38.194 19.1431C38.823 20.9598 39.0086 22.9216 39.3073 24.6765C39.496 25.7764 26.2368 23.3603 26.1865 17.5705C26.1362 11.7805 28.0735 11.6539 28.0735 11.6539L30.4573 14.484Z" fill="#EB2126"/>
<path d="M38.3391 35.6816C34.3292 35.6816 30.7314 34.0287 29.4136 33.3459C26.97 32.073 24.2811 30.0431 24.0075 28.1585C23.9785 27.8416 24.0751 27.5259 24.2771 27.2773C24.4792 27.0286 24.771 26.866 25.092 26.8234C25.413 26.7808 25.7382 26.8614 26.0002 27.0486C26.2621 27.2357 26.4405 27.5148 26.4983 27.8279C26.5832 28.3129 28.011 29.8886 30.9232 31.3315C32.5146 32.1193 38.0591 34.5169 42.6099 32.28C42.7584 32.1963 42.9227 32.1432 43.0927 32.1239C43.2628 32.1047 43.435 32.1198 43.599 32.1683C43.7629 32.2168 43.915 32.2976 44.046 32.4058C44.177 32.5141 44.2842 32.6474 44.3609 32.7978C44.4376 32.9481 44.4824 33.1123 44.4922 33.2801C44.5022 33.448 44.4771 33.6161 44.4186 33.7742C44.36 33.9322 44.2693 34.0768 44.1519 34.1992C44.0345 34.3216 43.893 34.4192 43.7358 34.486C42.0568 35.2937 40.2084 35.7033 38.3391 35.6816ZM37.6063 26.4129C34.9444 26.3591 32.3353 25.6733 30.0018 24.4139C27.8821 23.3109 25.5391 21.5406 25.3095 19.8784C25.2769 19.56 25.3712 19.2417 25.5727 18.9903C25.7742 18.7389 26.067 18.5741 26.3897 18.5305C26.7122 18.4869 27.0396 18.5678 27.3027 18.7564C27.5657 18.945 27.7441 19.2265 27.8003 19.5416C27.9167 19.9556 29.2878 21.4263 32.0397 22.659C33.6531 23.382 37.7761 24.8804 41.2073 23.1873C41.5022 23.062 41.8348 23.0523 42.1368 23.1602C42.4388 23.2681 42.6872 23.4855 42.8313 23.7677C42.9753 24.0499 43.0039 24.3755 42.9113 24.6778C42.8187 24.9801 42.6119 25.2361 42.3332 25.3933C40.8598 26.0899 39.2412 26.4391 37.6063 26.4129Z" fill="#144A8F"/>
<path d="M36.9449 12.7352C37.0072 12.9882 36.9676 13.255 36.8347 13.48C36.7017 13.705 36.4854 13.871 36.231 13.9433C35.254 14.2788 34.2305 14.4654 33.1961 14.4963C29.6265 14.5798 28.1704 10.3223 28.1704 10.3223C28.1704 10.3223 29.5636 2.15031 32.696 2.23373C33.759 2.26154 36.1398 9.44483 36.9449 12.7383" fill="#EB2126"/>
<path d="M33.9074 42.9206C28.1333 42.9206 23.2617 37.9062 23.2617 34.7548C23.2617 34.5447 24.4505 21.5839 26.979 11.5551C26.9915 11.4425 27.0201 11.3322 27.0639 11.2276C28.6616 5.00823 30.7813 0 33.464 0C40.5779 0 44.5532 34.4088 44.5532 34.7548C44.5532 37.9062 39.691 42.9206 33.9074 42.9206ZM28.9163 14.4067C27.1457 22.4397 25.7714 32.0669 25.7714 34.7548C25.7714 36.4078 29.2906 40.452 33.9043 40.452C38.5179 40.452 42.0372 36.4078 42.0372 34.7548C42.0372 33.6549 40.8798 25.3192 39.0935 17.3481C39.0557 17.172 39.0148 16.9989 38.9771 16.829C36.524 17.4469 33.552 17.0144 30.7247 15.5437C30.0919 15.2129 29.4872 14.8327 28.9163 14.4067ZM29.5611 11.6261C29.9227 12.1081 31.1681 13.1709 33.1652 13.934C34.3351 14.3851 36.4423 14.9784 38.4079 14.4346C35.5239 2.8208 33.4828 2.47167 33.464 2.47167C32.2375 2.46859 30.8316 6.4387 29.5611 11.623V11.6261Z" fill="#144A8F"/>
<path d="M52.3109 60.9697C52.3109 61.5809 52.1265 62.1786 51.7809 62.6865C51.4353 63.1944 50.9442 63.5906 50.3695 63.8241C49.7948 64.0581 49.1625 64.1193 48.5524 64.0003C47.9423 63.8808 47.382 63.5867 46.9421 63.1546C46.5023 62.7224 46.2028 62.1719 46.0814 61.5725C45.9601 60.9737 46.0224 60.3524 46.2604 59.7878C46.4984 59.2232 46.9015 58.7405 47.4187 58.401C47.9359 58.0615 48.5439 57.8802 49.1659 57.8802C50 57.8802 50.8 58.2057 51.3898 58.7854C51.9796 59.3646 52.3109 60.1503 52.3109 60.9697Z" fill="white"/>
<path d="M33.957 89.3941L34.0671 89.1286C35.171 88.9216 36.7875 89.6416 37.231 90.6546L38.643 94.696C38.8334 95.2426 38.8586 95.8319 38.7154 96.392L37.0831 102.828L36.4699 95.4929L33.957 89.3941Z" fill="#2494D1"/>
<path d="M24.0132 107.314C23.6796 107.314 23.3596 107.184 23.1237 106.952C22.8878 106.72 22.7553 106.406 22.7553 106.078V104.561C22.7553 104.233 22.8878 103.919 23.1237 103.687C23.3596 103.456 23.6796 103.325 24.0132 103.325C24.3469 103.325 24.6668 103.456 24.9028 103.687C25.1387 103.919 25.2712 104.233 25.2712 104.561V106.078C25.2712 106.406 25.1387 106.72 24.9028 106.952C24.6668 107.184 24.3469 107.314 24.0132 107.314ZM28.542 102.429H19.1071C18.7734 102.429 18.4535 102.299 18.2176 102.067C17.9817 101.835 17.8491 101.521 17.8491 101.193C17.8491 100.866 17.9817 100.551 18.2176 100.319C18.4535 100.088 18.7734 99.9575 19.1071 99.9575H28.542C28.8756 99.9575 29.1956 100.088 29.4315 100.319C29.6674 100.551 29.8 100.866 29.8 101.193C29.8 101.521 29.6674 101.835 29.4315 102.067C29.1956 102.299 28.8756 102.429 28.542 102.429Z" fill="#144A8F"/>
<path d="M44.7233 104.054H35.779C35.4453 104.054 35.1253 103.924 34.8894 103.692C34.6535 103.461 34.521 103.146 34.521 102.819C34.521 102.491 34.6535 102.177 34.8894 101.945C35.1253 101.713 35.4453 101.583 35.779 101.583H44.7233C45.0569 101.583 45.3769 101.713 45.6128 101.945C45.8488 102.177 45.9813 102.491 45.9813 102.819C45.9813 103.146 45.8488 103.461 45.6128 103.692C45.3769 103.924 45.0569 104.054 44.7233 104.054Z" fill="#144A8F"/>
<path d="M34.7442 90.9638C35.8984 92.0975 37.9081 95.2302 37.0777 96.0429C36.2475 96.8555 33.6183 96.1231 32.4735 94.9895C31.3288 93.8552 30.9482 92.3259 31.7785 91.5138C33.4799 92.2024 33.59 89.8296 34.7442 90.9638Z" fill="#2494D1"/>
<path d="M28.4284 107.493H18.8299C18.6579 107.493 18.4876 107.459 18.3297 107.392C18.1717 107.325 18.0294 107.227 17.9116 107.104C17.7939 106.98 17.7033 106.834 17.6454 106.675C17.5875 106.515 17.5636 106.346 17.5751 106.177L18.5437 91.8382C18.5526 91.7176 18.5791 91.5991 18.6224 91.4858L22.4372 81.4971C22.5655 81.2058 22.8028 80.9746 23.1001 80.8506C23.3974 80.7265 23.7318 80.7193 24.0342 80.8309C24.3365 80.9426 24.5836 81.1643 24.7242 81.45C24.8648 81.7356 24.8883 82.0634 24.7896 82.3653L21.0408 92.175L20.1728 105.028H27.1987L27.378 97.0565C27.3825 96.8932 27.4199 96.7327 27.488 96.5834L29.6895 91.7546C29.7512 91.5986 29.8445 91.4566 29.9637 91.3371C30.0829 91.2181 30.2256 91.1232 30.3831 91.0598C30.5405 90.9958 30.7095 90.9644 30.8798 90.9666C31.05 90.9689 31.218 91.0054 31.3737 91.0733C31.5292 91.1418 31.6691 91.24 31.7848 91.3623C31.9005 91.4852 31.9897 91.63 32.0469 91.7872C32.1041 91.9449 32.1281 92.1121 32.1175 92.2794C32.1069 92.446 32.062 92.6094 31.9853 92.7586L29.9002 97.359L29.699 106.288C29.6907 106.612 29.5528 106.921 29.315 107.146C29.0773 107.372 28.7588 107.496 28.4284 107.493Z" fill="#144A8F"/>
<path d="M35.6922 100.347H29.2041V104.165H35.6922V100.347Z" fill="#EB2126"/>
<path d="M35.6968 105.401H29.2087C28.8751 105.401 28.5551 105.271 28.3191 105.039C28.0832 104.808 27.9507 104.493 27.9507 104.166V100.347C27.9507 100.019 28.0832 99.7049 28.3191 99.4731C28.5551 99.2413 28.8751 99.1111 29.2087 99.1111H35.6968C36.0304 99.1111 36.3504 99.2413 36.5863 99.4731C36.8222 99.7049 36.9547 100.019 36.9547 100.347V104.168C36.9539 104.496 36.821 104.809 36.5852 105.04C36.3494 105.272 36.0299 105.401 35.6968 105.401ZM30.4635 102.93H34.4388V101.577H30.4635V102.93Z" fill="#144A8F"/>
<path d="M44.94 108.677H35.3415C35.1663 108.677 34.9929 108.642 34.8324 108.573C34.6719 108.504 34.5278 108.403 34.4094 108.276C34.291 108.149 34.2008 108 34.1447 107.836C34.0886 107.674 34.0677 107.501 34.0835 107.33L35.1811 95.6876L32.9796 90.7786C32.8614 90.4806 32.8651 90.1495 32.9901 89.8548C33.115 89.5596 33.3513 89.3239 33.6496 89.1959C33.9478 89.0686 34.2847 89.0596 34.5896 89.1707C34.8945 89.2824 35.1437 89.5052 35.2849 89.7931L37.5964 94.9928C37.6841 95.1865 37.7178 95.3997 37.6939 95.6107L36.697 106.223H43.8361L45.9086 92.9382C45.9268 92.7721 45.9791 92.6116 46.0623 92.4662C46.1454 92.3203 46.2577 92.1929 46.3924 92.0913C46.5271 91.9897 46.6814 91.9156 46.8459 91.8741C47.0104 91.8326 47.1818 91.8242 47.3498 91.8494C47.5177 91.8747 47.6787 91.933 47.823 92.0212C47.9673 92.1093 48.092 92.2249 48.1895 92.3618C48.287 92.4982 48.3553 92.6531 48.3903 92.8164C48.4253 92.9797 48.4263 93.1481 48.3931 93.312L46.9244 102.945C46.9852 102.942 47.0461 102.942 47.1069 102.945H48.7076C48.7873 102.693 48.9468 102.473 49.163 102.317C49.3791 102.16 49.6405 102.076 49.909 102.076C50.1774 102.076 50.4389 102.16 50.655 102.317C50.8712 102.473 51.0308 102.693 51.1104 102.945H52.6514C52.4187 84.8622 47.1005 79.9868 47.0439 79.9402C46.7954 79.7242 46.6437 79.4205 46.622 79.0956C46.6002 78.7706 46.71 78.4496 46.9275 78.2038C47.1433 77.9608 47.4473 77.8098 47.7747 77.784C48.1019 77.7582 48.4266 77.8587 48.6793 78.0646C48.9435 78.2874 55.1706 83.6971 55.1706 104.178C55.1706 104.506 55.038 104.82 54.8021 105.052C54.5661 105.283 54.2462 105.414 53.9126 105.414H47.0942C46.905 105.414 46.7181 105.373 46.547 105.294L46.1822 107.642C46.1337 107.931 45.9822 108.193 45.7546 108.383C45.5271 108.573 45.2383 108.677 44.94 108.677ZM32.1242 104.802C31.7905 104.802 31.4706 104.672 31.2347 104.44C30.9988 104.208 30.8662 103.894 30.8662 103.566V103.297C30.8662 102.97 30.9988 102.655 31.2347 102.423C31.4706 102.192 31.7905 102.061 32.1242 102.061C32.4578 102.061 32.7778 102.192 33.0137 102.423C33.2496 102.655 33.3822 102.97 33.3822 103.297V103.572C33.3805 103.899 33.2472 104.212 33.0115 104.442C32.7758 104.673 32.4567 104.802 32.1242 104.802Z" fill="#144A8F"/>
<path d="M23.8656 82.514L19.7991 91.9246L19.1104 101.194H28.5453L30.382 100.177L35.7001 100.359L35.7819 102.831H45.6665L46.3773 100.359H53.8434C53.8434 100.359 51.7521 82.2884 48.1825 79.8723C34.6308 88.9187 23.8624 82.523 23.8624 82.523" fill="white"/>
<path d="M48.3643 93.0645L48.9147 99.9513H46.2949L48.3643 93.0645Z" fill="#2494D1"/>
<path d="M22.4629 85.1091C22.4629 85.1091 30.665 89.9228 40.4993 85.1091C48.3617 81.2687 23.8656 82.5135 23.8656 82.5135L22.4629 85.1091Z" fill="#2494D1"/>
<path d="M53.9033 104.169H45.8867L46.3742 100.347H53.8435C53.8435 100.347 53.9222 102.924 53.9095 104.169" fill="#EB2126"/>
<path d="M53.9027 105.401H45.8862C45.7075 105.402 45.5306 105.367 45.3672 105.295C45.2039 105.224 45.0578 105.12 44.9388 104.989C44.8197 104.857 44.7304 104.703 44.6769 104.536C44.6234 104.368 44.6068 104.191 44.6282 104.017L45.1252 100.208C45.1636 99.9075 45.313 99.6314 45.5449 99.4321C45.7767 99.2329 46.075 99.124 46.3831 99.1263H53.8429C54.1697 99.1263 54.4836 99.2508 54.7183 99.4742C54.9531 99.697 55.0903 100.001 55.1009 100.322C55.1009 100.322 55.1796 102.933 55.167 104.194C55.1596 104.517 55.0229 104.825 54.7865 105.052C54.55 105.277 54.2326 105.403 53.9027 105.401ZM47.2983 102.93H52.6448C52.6448 102.469 52.6259 102.003 52.6164 101.577H47.4839L47.2983 102.93Z" fill="#144A8F"/>
<path d="M51.1704 80.8085C51.1704 80.8085 56.7213 73.6001 65.4295 75.6087C74.1382 77.6168 76.4121 72.5439 76.4121 72.5439C76.4121 72.5439 72.0847 88.1027 61.0015 83.8116C61.0015 83.8116 62.7033 85.2141 64.2726 86.5644C60.9479 88.9092 57.9321 90.3027 51.9661 86.7743" fill="#2494D1"/>
<path d="M50.4189 82.0381C50.4189 82.0381 56.0453 73.9464 63.1747 75.5841C70.3044 77.2211 74.6005 75.4914 74.6005 75.4914C74.6005 75.4914 69.6379 85.4768 61.7065 80.8607C60.3257 79.8909 58.4766 80.107 57.5737 81.3428C56.6711 82.5786 57.058 84.3706 58.4389 85.3409C56.3504 86.1721 53.5702 85.112 52.0795 84.136" fill="white"/>
<path d="M26.1668 83.5579C26.1668 83.5579 27.038 81.3551 23.8679 82.5135C20.6978 83.6724 18.6504 101.234 18.6504 101.234H20.0719C20.8519 101.234 22.4181 101.088 22.3646 100.325C22.3646 100.325 22.4621 95.1348 22.83 92.2395C23.566 89.5793 26.1668 83.5579 26.1668 83.5579Z" fill="#2494D1"/>
<path d="M64.2997 42.0556C64.2997 58.8293 50.6912 85.112 33.9065 85.112C17.1218 85.112 3.52295 58.8293 3.52295 42.0556C3.52295 25.2822 17.1312 18.5747 33.9159 18.5747C50.7006 18.5747 64.3088 25.2946 64.3088 42.0556" fill="white"/>
<path d="M33.9081 86.3449C16.4378 86.3449 2.2666 59.5459 2.2666 42.0555C2.2666 26.3419 13.8023 17.3387 33.9175 17.3387C54.0328 17.3387 65.5653 26.3542 65.5653 42.0555C65.5561 59.5459 51.3784 86.3449 33.9081 86.3449ZM33.9081 19.795C25.1462 19.795 4.76999 21.9577 4.76999 42.0555C4.76999 58.1894 18.1047 83.8795 33.9081 83.8795C49.7116 83.8795 63.0463 58.1894 63.0463 42.0555C63.0463 21.9639 42.6669 19.795 33.9081 19.795Z" fill="#144A8F"/>
<path d="M7.87052 39.2595C7.87052 39.2595 4.88281 39.7291 3.41411 39.1297C1.43906 38.3233 4.64693 35.9011 4.64693 35.9011L7.87052 39.2595Z" fill="#2494D1"/>
<path d="M41.2156 36.1296C41.2156 39.868 38.6996 41.1162 33.9822 42.8773C28.6357 42.8773 17.8516 39.868 17.8516 36.1296C17.8516 32.3912 29.6264 29.3572 34.9728 29.3572C40.3193 29.3572 41.2061 32.3881 41.2061 36.1296" fill="#2494D1"/>
<path d="M38.4958 69.7939C38.4958 69.7939 36.8352 62.9969 42.037 60.7138C41.0526 63.3274 39.0242 68.9997 40.2947 71.0022C41.5653 73.0041 38.4958 69.7939 38.4958 69.7939Z" fill="#2494D1"/>
<path d="M33.9081 86.3449C16.4378 86.3449 2.2666 59.5459 2.2666 42.0555C2.2666 26.3419 13.8023 17.3387 33.9175 17.3387C54.0328 17.3387 65.5653 26.3542 65.5653 42.0555C65.5561 59.5459 51.3784 86.3449 33.9081 86.3449ZM33.9081 19.795C25.1462 19.795 4.76999 21.9577 4.76999 42.0555C4.76999 58.1894 18.1047 83.8795 33.9081 83.8795C49.7116 83.8795 63.0463 58.1894 63.0463 42.0555C63.0463 21.9639 42.6669 19.795 33.9081 19.795Z" fill="#144A8F"/>
<path d="M24.1802 47.9257C24.1802 47.9257 25.8784 55.0317 37.2318 56.0977C37.9928 56.1684 38.4426 55.2511 38.0337 54.6178C37.4991 53.7867 35.7945 52.4396 35.7694 51.3366C38.2853 51.6239 42.3738 52.8227 44.525 51.6795C44.6725 51.6 44.7946 51.4817 44.8776 51.3378C44.9605 51.1939 45.0009 51.0301 44.9944 50.8649C44.9879 50.6996 44.9346 50.5395 44.8406 50.4023C44.7465 50.2651 44.6155 50.1564 44.462 50.0884C43.0688 49.4705 43.138 47.1657 42.4933 45.9854" fill="#2494D1"/>
<path d="M24.5161 45.6673C24.5161 45.6673 25.4942 53.4994 39.6339 52.4891C38.7943 51.4201 37.9011 50.2738 37.8634 48.7167C40.6686 49.0257 44.213 49.1091 45.9994 47.0545C44.3326 46.7672 42.4645 45.5097 41.6908 44.0854" fill="white"/>
<path d="M37.1752 53.8145C24.4161 53.8145 23.309 46.1616 23.265 45.8187C23.2458 45.5055 23.3486 45.1968 23.5525 44.9553C23.7564 44.7138 24.0462 44.5576 24.3631 44.5183C24.68 44.479 25.0002 44.5596 25.2589 44.7437C25.5175 44.9278 25.6952 45.2017 25.7558 45.5098C25.7967 45.7847 26.7716 51.3491 37.1783 51.3491H37.323C36.8761 50.5504 36.6292 49.6587 36.6028 48.7476C36.6006 48.5735 36.6359 48.401 36.7064 48.2413C36.7769 48.0816 36.8809 47.9382 37.0116 47.8208C37.1448 47.7029 37.3021 47.6144 37.473 47.561C37.6438 47.5078 37.8243 47.491 38.0023 47.5118C40.2667 47.7713 42.009 47.7126 43.267 47.3326C42.1522 46.6966 41.2254 45.7862 40.578 44.691C40.4601 44.4086 40.4526 44.0934 40.5571 43.806C40.6616 43.5186 40.8707 43.2794 41.144 43.1343C41.4174 42.9893 41.7357 42.9488 42.0377 43.0206C42.3397 43.0924 42.6039 43.2714 42.7795 43.5231C43.3582 44.5859 44.8929 45.6364 46.1981 45.8619C46.4153 45.9007 46.6183 45.9948 46.7868 46.135C46.9553 46.2751 47.0832 46.4564 47.1578 46.6605C47.2324 46.8647 47.251 47.0845 47.2117 47.2979C47.1724 47.5113 47.0766 47.7108 46.934 47.8764C45.1382 49.9464 42.1128 50.2523 39.4773 50.1163C39.801 50.6972 40.18 51.2465 40.6095 51.7569C40.7472 51.9336 40.8338 52.1435 40.8601 52.3645C40.8864 52.5855 40.8515 52.8094 40.7591 53.0126C40.6666 53.2157 40.5201 53.3906 40.3349 53.5187C40.1497 53.6468 39.9327 53.7234 39.7069 53.7404C38.8242 53.7919 37.9803 53.8166 37.1752 53.8145Z" fill="#144A8F"/>
<path d="M43.2947 34.7549C43.2947 37.1957 39.093 41.6848 33.907 41.6848C28.7209 41.6848 24.5161 37.1957 24.5161 34.7549C24.5161 32.3141 28.2743 1.2359 33.4635 1.2359C38.6527 1.2359 43.2947 32.3172 43.2947 34.7549Z" fill="white"/>
<path d="M33.9079 42.9206C28.1337 42.9206 23.2622 37.9062 23.2622 34.7548C23.2622 34.3995 26.4355 0 33.4645 0C40.5784 0 44.5536 34.4088 44.5536 34.7548C44.5536 37.9062 39.6915 42.9206 33.9079 42.9206ZM33.4645 2.46859C30.2408 2.46859 25.775 29.8979 25.775 34.7548C25.775 36.4078 29.2942 40.452 33.9079 40.452C38.5215 40.452 42.0408 36.4078 42.0408 34.7548C42.0408 33.6549 40.8834 25.3192 39.0971 17.3481C35.8515 2.88568 33.4865 2.46859 33.4645 2.46859Z" fill="#144A8F"/>
<path d="M39.5489 78.4755C39.681 79.1304 38.5866 78.4418 37.4544 78.6612C36.3221 78.8801 35.5674 79.9279 35.4479 79.2791C35.3283 78.6304 35.9951 77.2615 37.1273 77.0387C38.2595 76.8165 39.4168 77.8239 39.5489 78.4816" fill="#144A8F"/>
<path d="M28.3688 78.4755C28.2367 79.1304 29.3311 78.4418 30.4634 78.6612C31.5955 78.8801 32.3503 79.9279 32.4698 79.2791C32.5894 78.6304 31.9226 77.2615 30.7904 77.0387C29.6582 76.8165 28.5009 77.8239 28.3688 78.4816" fill="#144A8F"/>
<path d="M16.4174 24.6734C16.4174 24.6734 8.99532 21.0648 2.133 21.4974C-0.304345 28.4273 2.48838 35.3572 7.79393 38.0575" fill="white"/>
<path d="M7.77886 39.2935C7.5775 39.2926 7.37917 39.245 7.20015 39.1545C1.10836 36.0433 -1.58058 28.2791 0.944825 21.0928C1.02598 20.863 1.17429 20.662 1.37121 20.5147C1.56812 20.3674 1.80489 20.2805 2.05186 20.2647C9.18464 19.8013 16.6602 23.413 16.9747 23.5675C17.2543 23.7232 17.4627 23.978 17.5571 24.2798C17.6515 24.5816 17.6247 24.9075 17.4823 25.1905C17.3398 25.4735 17.0926 25.6922 16.7911 25.8018C16.4897 25.9114 16.157 25.9035 15.8614 25.7797C15.7954 25.7488 9.25699 22.6283 3.06453 22.6901C1.39141 28.4985 3.58346 34.5263 8.35751 36.964C8.60581 37.0923 8.80334 37.2985 8.91864 37.5498C9.03399 37.801 9.06049 38.0829 8.99396 38.3507C8.92743 38.6184 8.77176 38.8567 8.55156 39.0275C8.33136 39.1984 8.05942 39.292 7.77886 39.2935Z" fill="#144A8F"/>
<path d="M4.54587 26.1226C4.37919 27.1545 4.59305 31.4737 8.50538 34.4984C8.5365 34.531 8.57836 34.5516 8.62353 34.5567C8.6687 34.5617 8.71427 34.5509 8.75202 34.526C8.78977 34.5011 8.81735 34.4639 8.8298 34.4209C8.84219 34.378 8.83871 34.3321 8.81986 34.2914C8.57334 33.6224 8.41173 32.9262 8.33869 32.2183C8.3356 32.1767 8.34446 32.1351 8.36433 32.0981C8.38414 32.0613 8.41413 32.0306 8.4509 32.0096C8.48762 31.9887 8.52959 31.9783 8.57208 31.9797C8.61451 31.9811 8.65568 31.9942 8.69092 32.0175C9.04949 32.2554 9.48977 32.4222 10.342 32.2461C10.4056 32.2326 10.4651 32.2046 10.5157 32.1643C10.5663 32.1241 10.6065 32.0727 10.6331 32.0143C10.6598 31.956 10.672 31.8924 10.669 31.8285C10.666 31.7647 10.6477 31.7024 10.6157 31.6467C10.4236 31.3663 10.2899 31.0513 10.2226 30.7198C10.2142 30.6636 10.2185 30.6062 10.2353 30.5519C10.2521 30.4975 10.2809 30.4474 10.3196 30.4052C10.3584 30.363 10.4061 30.3297 10.4595 30.3077C10.5128 30.2858 10.5704 30.2756 10.6282 30.278C12.1189 30.3306 13.2826 30.5128 14.2135 29.8578" fill="#2494D1"/>
<path d="M13.6762 28.931C11.1025 27.7479 8.38361 26.8974 5.5874 26.4006L13.6762 28.931Z" fill="white"/>
<path d="M13.6763 30.1638C13.4834 30.1628 13.2933 30.1195 13.1196 30.0372C10.6549 28.9082 8.05256 28.0951 5.37672 27.618C5.05924 27.5515 4.78019 27.3671 4.59792 27.1032C4.41564 26.8394 4.34425 26.5165 4.39867 26.2021C4.45308 25.8877 4.6291 25.6062 4.88992 25.4164C5.15073 25.2265 5.47615 25.1431 5.79813 25.1834C8.71527 25.6977 11.5511 26.5858 14.233 27.825C14.4847 27.95 14.6863 28.1544 14.8056 28.4054C14.9249 28.6565 14.9548 28.9396 14.8906 29.2094C14.8263 29.4792 14.6718 29.7199 14.4516 29.893C14.2313 30.0661 13.9583 30.1615 13.6763 30.1638Z" fill="#144A8F"/>
<path d="M51.3936 24.6734C51.3936 24.6734 58.819 21.0648 65.6814 21.4974C68.1187 28.4273 65.3256 35.3572 60.0199 38.0575" fill="white"/>
<path d="M60.0368 39.2934C59.7559 39.2925 59.4835 39.1994 59.2625 39.0288C59.0421 38.8582 58.8856 38.6199 58.8188 38.352C58.752 38.0841 58.7782 37.8018 58.8936 37.5503C59.0084 37.2987 59.2065 37.0923 59.4549 36.9638C64.2227 34.5261 66.4241 28.4984 64.7509 22.6961C58.5207 22.5972 52.0201 25.7486 51.9572 25.7795C51.6616 25.9033 51.3289 25.9112 51.0275 25.8016C50.7261 25.6921 50.4788 25.4733 50.3364 25.1903C50.1939 24.9073 50.1672 24.5815 50.2615 24.2796C50.3559 23.9779 50.5643 23.723 50.8439 23.5673C51.1584 23.416 58.6526 19.8166 65.7697 20.2646C66.017 20.2803 66.2534 20.3672 66.4504 20.5146C66.6474 20.6618 66.7959 20.8629 66.877 21.0926C69.3931 28.279 66.7137 36.0431 60.6182 39.1543C60.4389 39.246 60.239 39.2937 60.0368 39.2934Z" fill="#144A8F"/>
<path d="M63.2779 26.1226C63.4446 27.1545 63.231 31.4737 59.3187 34.4984C59.2873 34.531 59.2456 34.5516 59.2005 34.5567C59.1554 34.5617 59.1097 34.5509 59.072 34.526C59.0343 34.5011 59.0063 34.4639 58.9944 34.4209C58.9818 34.378 58.9852 34.3321 59.0041 34.2914C59.249 33.622 59.4107 32.9259 59.4849 32.2183C59.4883 32.1767 59.4792 32.1351 59.4598 32.0981C59.4398 32.0613 59.4095 32.0306 59.373 32.0096C59.3364 31.9887 59.2942 31.9783 59.2519 31.9797C59.2091 31.9811 59.168 31.9942 59.1331 32.0175C58.7745 32.2554 58.3342 32.4222 57.4816 32.2461C57.4182 32.2326 57.3588 32.2046 57.308 32.1643C57.2578 32.1241 57.2172 32.0727 57.191 32.0143C57.1641 31.956 57.1521 31.8924 57.155 31.8285C57.1578 31.7647 57.1761 31.7024 57.2081 31.6467C57.3988 31.3656 57.5324 31.0508 57.6015 30.7198C57.6095 30.6636 57.6055 30.6062 57.5884 30.5519C57.5718 30.4975 57.5427 30.4474 57.5045 30.4052C57.4656 30.363 57.4177 30.3297 57.3646 30.3077C57.3109 30.2858 57.2532 30.2756 57.1955 30.278C55.7049 30.3306 54.5413 30.5128 53.6104 29.8578" fill="#2494D1"/>
<path d="M54.1357 28.931C56.7105 27.7476 59.4307 26.897 62.2278 26.4006L54.1357 28.931Z" fill="white"/>
<path d="M54.1386 30.1638C53.8563 30.1622 53.5828 30.0673 53.3621 29.8944C53.1414 29.7216 52.9862 29.4809 52.9216 29.2109C52.857 28.941 52.8867 28.6575 53.0058 28.4061C53.1251 28.1547 53.3269 27.9501 53.5788 27.825C56.2627 26.5852 59.1006 25.6971 62.0199 25.1834C62.3419 25.1431 62.6674 25.2265 62.9284 25.4164C63.1888 25.6062 63.3647 25.8877 63.4195 26.2021C63.4738 26.5165 63.4024 26.8394 63.2202 27.1032C63.0381 27.3671 62.7588 27.5515 62.4413 27.618C59.7647 28.0954 57.1613 28.9085 54.6953 30.0372C54.5216 30.1195 54.3315 30.1628 54.1386 30.1638Z" fill="#144A8F"/>
<path d="M58.7716 67.5383C55.5732 74.3359 49.2769 78.1606 44.7073 76.0874C40.1376 74.0143 39.0274 66.8188 42.2228 60.0213C45.418 53.2244 51.7174 49.3964 56.287 51.4726C60.8565 53.5488 61.9701 60.7413 58.7716 67.5383Z" fill="white"/>
<path d="M47.3862 77.8884C46.28 77.8935 45.1862 77.6606 44.1815 77.206C41.5743 76.0223 39.8446 73.4677 39.3099 70.0099C38.8036 66.7414 39.4357 63.0092 41.0837 59.5055C44.5683 52.0906 51.6287 47.9999 56.8085 50.3542C61.9883 52.7085 63.3879 60.6515 59.9062 68.0546C58.2553 71.5578 55.7707 74.447 52.9088 76.1862C51.0564 77.3171 49.1694 77.8884 47.3862 77.8884ZM53.6447 52.1523C50.0374 52.1523 45.7288 55.5138 43.3638 60.5404C41.9202 63.6114 41.3604 66.8435 41.7913 69.6395C42.1939 72.2504 43.4172 74.1439 45.2319 74.9661C47.0466 75.7878 49.3203 75.4785 51.591 74.0884C54.0378 72.5994 56.1827 70.0908 57.626 67.0192C60.479 60.9574 59.6235 54.3521 55.7581 52.5941C55.0947 52.2975 54.3735 52.1467 53.6447 52.1523Z" fill="#144A8F"/>
<path d="M9.0427 67.5383C12.238 74.3358 18.5342 78.1606 23.1038 76.0874C27.6735 74.0143 28.7868 66.8188 25.5884 60.0218C22.39 53.2245 16.1032 49.3996 11.5241 51.4758C6.94502 53.552 5.84425 60.7447 9.0427 67.5417" fill="white"/>
<path d="M20.4251 77.8884C18.6419 77.8884 16.7549 77.3171 14.8994 76.1862C12.0375 74.447 9.55297 71.5516 7.90186 68.0546C4.42036 60.6392 5.80727 52.7114 10.9996 50.3541C16.192 47.9968 23.2461 52.1028 26.7245 59.5055C28.3725 63.0092 29.0014 66.7414 28.4951 70.0099C27.9604 73.4671 26.2307 76.0223 23.6267 77.206C22.6229 77.66 21.5302 77.8929 20.4251 77.8884ZM14.1698 52.1522C13.4399 52.1459 12.7174 52.2967 12.0532 52.594C8.18802 54.352 7.33577 60.9574 10.1819 67.0192C11.6255 70.0902 13.7704 72.5994 16.2203 74.0884C18.5067 75.4909 20.7647 75.8001 22.5794 74.9656C24.3941 74.1316 25.6143 72.2498 26.02 69.6395C26.4508 66.8435 25.8942 63.6114 24.4475 60.5404C22.0793 55.5137 17.777 52.1522 14.1698 52.1522Z" fill="#144A8F"/>
<path d="M9.0427 67.5383C12.238 74.3358 18.5342 78.1606 23.1038 76.0874C27.6735 74.0143 28.7868 66.8188 25.5884 60.0218C22.39 53.2245 16.1032 49.3996 11.5241 51.4758C6.94502 53.552 5.84425 60.7447 9.0427 67.5417" fill="white"/>
<path d="M20.4251 77.8884C18.6419 77.8884 16.7549 77.3171 14.8994 76.1862C12.0375 74.447 9.55297 71.5516 7.90186 68.0546C4.42036 60.6392 5.80727 52.7114 10.9996 50.3541C16.192 47.9968 23.2461 52.1028 26.7245 59.5055C28.3725 63.0092 29.0014 66.7414 28.4951 70.0099C27.9604 73.4671 26.2307 76.0223 23.6267 77.206C22.6229 77.66 21.5302 77.8929 20.4251 77.8884ZM14.1698 52.1522C13.4399 52.1459 12.7174 52.2967 12.0532 52.594C8.18802 54.352 7.33577 60.9574 10.1819 67.0192C11.6255 70.0902 13.7704 72.5994 16.2203 74.0884C18.5067 75.4909 20.7647 75.8001 22.5794 74.9656C24.3941 74.1316 25.6143 72.2498 26.02 69.6395C26.4508 66.8435 25.8942 63.6114 24.4475 60.5404C22.0793 55.5137 17.777 52.1522 14.1698 52.1522Z" fill="#144A8F"/>
<path d="M26.0352 62.2055C25.8421 62.6383 25.5506 63.0216 25.1831 63.3263C24.8157 63.6305 24.3821 63.8483 23.9156 63.9627C23.4492 64.0767 22.9622 64.0845 22.4923 63.9852C22.0223 63.8853 21.5819 63.6816 21.2047 63.3886C20.8276 63.0957 20.5238 62.7219 20.3167 62.2953C20.1097 61.8694 20.0048 61.4019 20.0103 60.9299C20.0157 60.4573 20.1313 59.9926 20.3482 59.5712C20.565 59.1497 20.8773 58.7826 21.2611 58.4981C21.1353 58.4981 21.0158 58.4611 20.8868 58.4611C19.7196 58.4414 18.5763 58.7866 17.6217 59.4471C16.6671 60.1071 15.9506 61.0477 15.5755 62.1337C15.2003 63.2197 15.1859 64.3949 15.5345 65.4893C15.883 66.5837 16.5763 67.5411 17.5145 68.2236C18.4528 68.906 19.5873 69.2781 20.7546 69.286C21.922 69.2944 23.0617 68.938 24.0096 68.2685C24.9574 67.5989 25.6643 66.651 26.0284 65.5617C26.3924 64.4718 26.3948 63.2966 26.0352 62.2055Z" fill="#144A8F"/>
<path d="M27.3431 75.6177C26.5581 76.5746 26.1665 77.7862 26.2457 79.0131C26.3248 80.2394 26.869 81.3927 27.7709 82.2446C29.0917 83.4804 31.982 84.2128 33.4632 84.3397C33.4632 84.3397 22.6634 83.6415 19.0278 78.4075C20.6003 76.8131 24.6888 74.6445 25.909 73.1152C27.1293 71.5858 29.7176 68.6136 31.441 70.1025" fill="#2494D1"/>
<path d="M29.7241 69.7074C29.7241 69.7074 31.7872 58.1647 22.8271 54.8619C24.7582 59.1345 28.7554 68.4284 26.8402 71.9136C24.9249 75.3983 29.7241 69.7074 29.7241 69.7074Z" fill="#2494D1"/>
<path d="M33.901 86.3449C27.8784 86.3449 21.8211 83.1779 16.3804 77.1902C16.2859 77.0836 16.2094 76.9624 16.1539 76.8316C12.9209 75.3056 9.86395 72.1976 7.9015 68.0574C4.42002 60.6425 5.81011 52.7114 10.9993 50.3541C13.6033 49.1707 16.7074 49.5322 19.7329 51.3736C22.5979 53.113 25.0793 56.008 26.7304 59.5055C28.3469 62.9441 28.9131 66.5 28.5357 69.5587C30.03 68.1938 32.0047 67.4507 34.045 67.4861C36.0852 67.5209 38.0323 68.3319 39.477 69.7473L43.9491 74.1159C44.1606 74.3516 44.2731 74.6569 44.2636 74.9706C44.2541 75.2843 44.1234 75.5829 43.8981 75.8057C43.6727 76.0279 43.3695 76.1581 43.0502 76.1694C42.7308 76.18 42.4192 76.0712 42.1785 75.8646L37.7032 71.4932C36.6958 70.5066 35.3313 69.9527 33.9088 69.9527C32.4864 69.9527 31.1219 70.5066 30.1144 71.4932L25.7397 75.772C25.7001 75.8096 25.6581 75.845 25.6139 75.877C25.0329 76.4253 24.3634 76.8754 23.6327 77.2088C22.6698 77.6409 21.6247 77.8671 20.5663 77.8732C23.9597 80.9628 28.5576 83.8789 33.901 83.8789C34.2346 83.8789 34.5546 84.0091 34.7905 84.2409C35.0264 84.4727 35.159 84.7875 35.159 85.1153C35.159 85.443 35.0264 85.7573 34.7905 85.9891C34.5546 86.2209 34.2346 86.3511 33.901 86.3511V86.3449ZM10.1816 67.0192C13.0844 73.1982 18.6385 76.7547 22.579 74.9655C26.4443 73.2106 27.2965 66.6055 24.4661 60.5404C23.0225 57.4727 20.8776 54.9606 18.4277 53.4714C16.1413 52.0811 13.8832 51.7722 12.0686 52.594C8.20342 54.3489 7.35112 60.9574 10.1973 67.0192H10.1816Z" fill="#144A8F"/>
<path d="M58.1212 89.7527C55.8692 89.7196 53.6534 89.1915 51.6361 88.2077C51.3533 88.0567 51.1403 87.8047 51.041 87.5039C50.9417 87.2025 50.9636 86.8759 51.1023 86.5902C51.241 86.3051 51.4858 86.0823 51.7864 85.9689C52.0869 85.8556 52.4204 85.8595 52.718 85.9802C56.0957 87.5651 59.3855 87.6953 62.1529 86.3882C61.0804 85.4857 60.2096 84.7629 60.2062 84.7629C59.9829 84.5737 59.8344 84.3139 59.787 84.0277C59.739 83.742 59.795 83.449 59.9446 83.1999C60.0942 82.9501 60.3289 82.7604 60.6065 82.6633C60.884 82.5662 61.1878 82.5679 61.4642 82.6684C63.8198 83.595 65.9207 83.5579 67.8829 82.5943C70.3642 81.377 72.1636 78.8683 73.3582 76.6217C71.4714 77.348 68.8012 77.66 65.1281 76.8165C57.3252 75.0155 51.4506 82.165 51.394 82.2357C51.1812 82.4731 50.8839 82.6212 50.5632 82.6499C50.2426 82.6785 49.9231 82.5848 49.6704 82.3889C49.4177 82.193 49.2511 81.909 49.2049 81.5964C49.1587 81.2833 49.2364 80.9651 49.4221 80.7063C49.6988 80.3606 56.3221 72.2504 65.7037 74.4128C73.1915 76.1368 75.1731 72.2038 75.2547 72.0371C75.3878 71.7565 75.623 71.5348 75.9143 71.4164C76.2055 71.298 76.5316 71.2912 76.8274 71.3973C77.1209 71.5039 77.3642 71.7144 77.5081 71.9877C77.6526 72.261 77.688 72.577 77.6075 72.8745C77.5064 73.2387 75.06 81.8338 69.009 84.7971C67.8349 85.3825 66.5495 85.7203 65.2349 85.7888C65.3434 85.9196 65.4234 86.07 65.4702 86.2322C65.517 86.3943 65.5296 86.5638 65.5067 86.7305C65.4845 86.8978 65.4279 87.0583 65.34 87.2031C65.252 87.3473 65.135 87.473 64.9962 87.5712C62.9975 88.9956 60.5899 89.7589 58.1212 89.7527Z" fill="#144A8F"/>
<path d="M29.3976 102.077H19.1104V106.26H29.3976V102.077Z" fill="#EB2126"/>
<path d="M45.3329 103.952H35.0488V108.136H45.3329V103.952Z" fill="#EB2126"/>
<path d="M40.0217 108.679C39.688 108.679 39.368 108.549 39.1321 108.317C38.8962 108.086 38.7637 107.771 38.7637 107.444V105.738C38.7637 105.41 38.8962 105.096 39.1321 104.864C39.368 104.632 39.688 104.502 40.0217 104.502C40.3553 104.502 40.6753 104.632 40.9112 104.864C41.1471 105.096 41.2796 105.41 41.2796 105.738V107.444C41.2796 107.771 41.1471 108.086 40.9112 108.317C40.6753 108.549 40.3553 108.679 40.0217 108.679Z" fill="#144A8F"/>
<path d="M19.2894 101.623C19.2894 101.623 20.7109 101.623 21.8053 101.561C22.1513 101.546 22.3997 102.003 22.2677 102.423C21.7613 104.048 22.1985 105.361 21.8148 105.868C21.3556 106.464 18.7925 105.54 18.7925 105.54L19.2894 101.623Z" fill="#A62126"/>
<path d="M34.9009 103.671C34.9009 103.671 36.3099 103.489 37.3885 103.3C37.7282 103.242 38.0175 103.665 37.9546 104.098C37.6622 105.772 38.2692 107.02 37.9546 107.57C37.5741 108.222 34.9134 107.62 34.9134 107.62L34.9009 103.671Z" fill="#A62126"/>
<path d="M29.2122 33.1945C29.2122 33.1945 34.4769 37.5447 38.0779 36.593C40.2542 36.0153 37.9552 40.6095 29.5172 39.4571C20.7365 38.2521 25.2873 29.4561 25.2873 29.4561L29.2122 33.1945Z" fill="#EB2126"/>
<path d="M30.3653 24.1821C30.9691 25.5848 35.5576 27.7042 38.7498 27.525C38.9608 27.5103 39.1706 27.5657 39.3457 27.6823C39.5208 27.7988 39.6509 27.9697 39.7153 28.1677C40.4795 30.5961 40.5047 33.3922 39.8631 34.5168C39.2341 35.592 25.2264 33.0585 25.1666 27.2563C25.1069 21.454 27.4719 21.3397 27.4719 21.3397L30.3653 24.1821Z" fill="#EB2126"/>
<path d="M30.4573 14.484C30.9322 15.8217 34.5207 17.9474 36.936 18.1606C37.2201 18.1869 37.4902 18.2938 37.7135 18.4683C37.9369 18.6427 38.1038 18.8771 38.194 19.1431C38.823 20.9598 39.0086 22.9216 39.3073 24.6765C39.496 25.7764 26.2368 23.3603 26.1865 17.5705C26.1362 11.7805 28.0735 11.6539 28.0735 11.6539L30.4573 14.484Z" fill="#EB2126"/>
<path d="M38.3391 35.6816C34.3292 35.6816 30.7314 34.0287 29.4136 33.3459C26.97 32.073 24.2811 30.0431 24.0075 28.1585C23.9785 27.8416 24.0751 27.5259 24.2771 27.2773C24.4792 27.0286 24.771 26.866 25.092 26.8234C25.413 26.7808 25.7382 26.8614 26.0002 27.0486C26.2621 27.2357 26.4405 27.5148 26.4983 27.8279C26.5832 28.3129 28.011 29.8886 30.9232 31.3315C32.5146 32.1193 38.0591 34.5169 42.6099 32.28C42.7584 32.1963 42.9227 32.1432 43.0927 32.1239C43.2628 32.1047 43.435 32.1198 43.599 32.1683C43.7629 32.2168 43.915 32.2976 44.046 32.4058C44.177 32.5141 44.2842 32.6474 44.3609 32.7978C44.4376 32.9481 44.4824 33.1123 44.4922 33.2801C44.5022 33.448 44.4771 33.6161 44.4186 33.7742C44.36 33.9322 44.2693 34.0768 44.1519 34.1992C44.0345 34.3216 43.893 34.4192 43.7358 34.486C42.0568 35.2937 40.2084 35.7033 38.3391 35.6816ZM37.6063 26.4129C34.9444 26.3591 32.3353 25.6733 30.0018 24.4139C27.8821 23.3109 25.5391 21.5406 25.3095 19.8784C25.2769 19.56 25.3712 19.2417 25.5727 18.9903C25.7742 18.7389 26.067 18.5741 26.3897 18.5305C26.7122 18.4869 27.0396 18.5678 27.3027 18.7564C27.5657 18.945 27.7441 19.2265 27.8003 19.5416C27.9167 19.9556 29.2878 21.4263 32.0397 22.659C33.6531 23.382 37.7761 24.8804 41.2073 23.1873C41.5022 23.062 41.8348 23.0523 42.1368 23.1602C42.4388 23.2681 42.6872 23.4855 42.8313 23.7677C42.9753 24.0499 43.0039 24.3755 42.9113 24.6778C42.8187 24.9801 42.6119 25.2361 42.3332 25.3933C40.8598 26.0899 39.2412 26.4391 37.6063 26.4129Z" fill="#144A8F"/>
<path d="M36.9449 12.7352C37.0072 12.9882 36.9676 13.255 36.8347 13.48C36.7017 13.705 36.4854 13.871 36.231 13.9433C35.254 14.2788 34.2305 14.4654 33.1961 14.4963C29.6265 14.5798 28.1704 10.3223 28.1704 10.3223C28.1704 10.3223 29.5636 2.15031 32.696 2.23373C33.759 2.26154 36.1398 9.44483 36.9449 12.7383" fill="#EB2126"/>
<path d="M33.9074 42.9206C28.1333 42.9206 23.2617 37.9062 23.2617 34.7548C23.2617 34.5447 24.4505 21.5839 26.979 11.5551C26.9915 11.4425 27.0201 11.3322 27.0639 11.2276C28.6616 5.00823 30.7813 0 33.464 0C40.5779 0 44.5532 34.4088 44.5532 34.7548C44.5532 37.9062 39.691 42.9206 33.9074 42.9206ZM28.9163 14.4067C27.1457 22.4397 25.7714 32.0669 25.7714 34.7548C25.7714 36.4078 29.2906 40.452 33.9043 40.452C38.5179 40.452 42.0372 36.4078 42.0372 34.7548C42.0372 33.6549 40.8798 25.3192 39.0935 17.3481C39.0557 17.172 39.0148 16.9989 38.9771 16.829C36.524 17.4469 33.552 17.0144 30.7247 15.5437C30.0919 15.2129 29.4872 14.8327 28.9163 14.4067ZM29.5611 11.6261C29.9227 12.1081 31.1681 13.1709 33.1652 13.934C34.3351 14.3851 36.4423 14.9784 38.4079 14.4346C35.5239 2.8208 33.4828 2.47167 33.464 2.47167C32.2375 2.46859 30.8316 6.4387 29.5611 11.623V11.6261Z" fill="#144A8F"/>
<path d="M52.0664 62.1629C51.8769 62.5979 51.588 62.9851 51.222 63.2932C50.856 63.6013 50.4228 63.823 49.9559 63.9409C49.4889 64.0582 49.0006 64.0688 48.5288 63.9717C48.0569 63.8746 47.6142 63.672 47.2348 63.3796C46.8553 63.0878 46.5493 62.7135 46.3404 62.2869C46.1314 61.8599 46.0252 61.3918 46.0299 60.9181C46.0345 60.4444 46.1499 59.9786 46.3672 59.5555C46.5845 59.1329 46.8978 58.7647 47.2829 58.4796C47.1634 58.4796 47.0502 58.4459 46.9276 58.4459C45.8557 58.4459 44.8079 58.758 43.9167 59.3433C43.0255 59.9281 42.331 60.7599 41.921 61.733C41.5109 62.7056 41.4038 63.7764 41.6131 64.8091C41.8225 65.8417 42.3389 66.7902 43.097 67.5344C43.8551 68.2791 44.821 68.7854 45.8724 68.9908C46.9237 69.1956 48.0133 69.0901 49.0034 68.6866C49.9935 68.2831 50.8396 67.6001 51.4346 66.7245C52.0297 65.8485 52.347 64.8192 52.3463 63.7663C52.339 63.2203 52.2446 62.6792 52.0664 62.1629Z" fill="#144A8F"/>
<path d="M33.957 89.3941L34.0671 89.1286C35.171 88.9216 36.7875 89.6416 37.231 90.6546L38.643 94.696C38.8334 95.2426 38.8586 95.8319 38.7154 96.392L37.0831 102.828L36.4699 95.4929L33.957 89.3941Z" fill="#2494D1"/>
<path d="M24.0132 107.314C23.6796 107.314 23.3596 107.184 23.1237 106.952C22.8878 106.72 22.7553 106.406 22.7553 106.078V104.561C22.7553 104.233 22.8878 103.919 23.1237 103.687C23.3596 103.456 23.6796 103.325 24.0132 103.325C24.3469 103.325 24.6668 103.456 24.9028 103.687C25.1387 103.919 25.2712 104.233 25.2712 104.561V106.078C25.2712 106.406 25.1387 106.72 24.9028 106.952C24.6668 107.184 24.3469 107.314 24.0132 107.314ZM28.542 102.429H19.1071C18.7734 102.429 18.4535 102.299 18.2176 102.067C17.9817 101.835 17.8491 101.521 17.8491 101.193C17.8491 100.866 17.9817 100.551 18.2176 100.319C18.4535 100.088 18.7734 99.9575 19.1071 99.9575H28.542C28.8756 99.9575 29.1956 100.088 29.4315 100.319C29.6674 100.551 29.8 100.866 29.8 101.193C29.8 101.521 29.6674 101.835 29.4315 102.067C29.1956 102.299 28.8756 102.429 28.542 102.429Z" fill="#144A8F"/>
<path d="M44.7233 104.054H35.779C35.4453 104.054 35.1253 103.924 34.8894 103.692C34.6535 103.461 34.521 103.146 34.521 102.819C34.521 102.491 34.6535 102.177 34.8894 101.945C35.1253 101.713 35.4453 101.583 35.779 101.583H44.7233C45.0569 101.583 45.3769 101.713 45.6128 101.945C45.8488 102.177 45.9813 102.491 45.9813 102.819C45.9813 103.146 45.8488 103.461 45.6128 103.692C45.3769 103.924 45.0569 104.054 44.7233 104.054Z" fill="#144A8F"/>
<path d="M34.7442 90.9638C35.8984 92.0975 37.9081 95.2302 37.0777 96.0429C36.2475 96.8555 33.6183 96.1231 32.4735 94.9895C31.3288 93.8552 30.9482 92.3259 31.7785 91.5138C33.4799 92.2024 33.59 89.8296 34.7442 90.9638Z" fill="#2494D1"/>
<path d="M28.4284 107.493H18.8299C18.6579 107.493 18.4876 107.459 18.3297 107.392C18.1717 107.325 18.0294 107.227 17.9116 107.104C17.7939 106.98 17.7033 106.834 17.6454 106.675C17.5875 106.515 17.5636 106.346 17.5751 106.177L18.5437 91.8382C18.5526 91.7176 18.5791 91.5991 18.6224 91.4858L22.4372 81.4971C22.5655 81.2058 22.8028 80.9746 23.1001 80.8506C23.3974 80.7265 23.7318 80.7193 24.0342 80.8309C24.3365 80.9426 24.5836 81.1643 24.7242 81.45C24.8648 81.7356 24.8883 82.0634 24.7896 82.3653L21.0408 92.175L20.1728 105.028H27.1987L27.378 97.0565C27.3825 96.8932 27.4199 96.7327 27.488 96.5834L29.6895 91.7546C29.7512 91.5986 29.8445 91.4566 29.9637 91.3371C30.0829 91.2181 30.2256 91.1232 30.3831 91.0598C30.5405 90.9958 30.7095 90.9644 30.8798 90.9666C31.05 90.9689 31.218 91.0054 31.3737 91.0733C31.5292 91.1418 31.6691 91.24 31.7848 91.3623C31.9005 91.4852 31.9897 91.63 32.0469 91.7872C32.1041 91.9449 32.1281 92.1121 32.1175 92.2794C32.1069 92.446 32.062 92.6094 31.9853 92.7586L29.9002 97.359L29.699 106.288C29.6907 106.612 29.5528 106.921 29.315 107.146C29.0773 107.372 28.7588 107.496 28.4284 107.493Z" fill="#144A8F"/>
<path d="M35.6922 100.347H29.2041V104.165H35.6922V100.347Z" fill="#EB2126"/>
<path d="M35.6968 105.402H29.2087C28.8751 105.402 28.5551 105.272 28.3191 105.04C28.0832 104.808 27.9507 104.493 27.9507 104.166V100.347C27.9507 100.019 28.0832 99.7049 28.3191 99.4731C28.5551 99.2413 28.8751 99.1111 29.2087 99.1111H35.6968C36.0304 99.1111 36.3504 99.2413 36.5863 99.4731C36.8222 99.7049 36.9547 100.019 36.9547 100.347V104.169C36.9539 104.496 36.821 104.81 36.5852 105.041C36.3494 105.272 36.0299 105.402 35.6968 105.402ZM30.4635 102.93H34.4388V101.577H30.4635V102.93Z" fill="#144A8F"/>
<path d="M44.9395 108.677H35.341C35.1659 108.677 34.9924 108.642 34.832 108.573C34.6714 108.504 34.5274 108.403 34.4089 108.276C34.2905 108.149 34.2004 108 34.1442 107.836C34.0881 107.674 34.0673 107.501 34.083 107.33L35.1806 95.6876L32.9792 90.7786C32.8609 90.4806 32.8647 90.1495 32.9896 89.8548C33.1145 89.5596 33.3509 89.3239 33.6491 89.1959C33.9473 89.0686 34.2843 89.0596 34.5891 89.1707C34.894 89.2824 35.1432 89.5052 35.2844 89.7931L37.5959 94.9928C37.6837 95.1865 37.7174 95.3997 37.6935 95.6107L36.6965 106.223H43.8356L45.9081 92.9382C45.9264 92.7721 45.9786 92.6116 46.0618 92.4662C46.1449 92.3203 46.2573 92.1929 46.3919 92.0913C46.5266 91.9897 46.6809 91.9156 46.8454 91.8741C47.0099 91.8326 47.1813 91.8242 47.3493 91.8494C47.5172 91.8747 47.6782 91.933 47.8225 92.0212C47.9669 92.1093 48.0916 92.2249 48.189 92.3618C48.2866 92.4982 48.3549 92.6531 48.3898 92.8164C48.4248 92.9797 48.4258 93.1481 48.3926 93.312L46.924 102.945C46.9847 102.942 47.0456 102.942 47.1064 102.945H48.7072C48.7868 102.693 48.9463 102.473 49.1625 102.317C49.3787 102.16 49.64 102.076 49.9085 102.076C50.177 102.076 50.4384 102.16 50.6546 102.317C50.8707 102.473 51.0303 102.693 51.1099 102.945H52.651C52.4182 84.8622 47.1001 79.9868 47.0434 79.9402C46.7949 79.7242 46.6432 79.4205 46.6215 79.0956C46.5997 78.7706 46.7095 78.4496 46.9271 78.2038C47.1429 77.9608 47.4468 77.8098 47.7742 77.784C48.1014 77.7582 48.4261 77.8587 48.6788 78.0646C48.943 78.2874 55.1701 83.6971 55.1701 104.178C55.1701 104.506 55.0375 104.82 54.8016 105.052C54.5657 105.283 54.2457 105.414 53.9121 105.414H47.0937C46.9046 105.414 46.7176 105.373 46.5466 105.294L46.1817 107.642C46.1332 107.931 45.9817 108.193 45.7542 108.383C45.5266 108.573 45.2379 108.677 44.9395 108.677ZM32.1237 104.802C31.7901 104.802 31.4701 104.672 31.2342 104.44C30.9983 104.208 30.8657 103.894 30.8657 103.566V103.297C30.8657 102.97 30.9983 102.655 31.2342 102.423C31.4701 102.192 31.7901 102.061 32.1237 102.061C32.4574 102.061 32.7773 102.192 33.0132 102.423C33.2492 102.655 33.3817 102.97 33.3817 103.297V103.572C33.38 103.899 33.2468 104.212 33.011 104.442C32.7753 104.673 32.4562 104.802 32.1237 104.802Z" fill="#144A8F"/>
<mask id="mask0_173_3358" style="mask-type:luminance" maskUnits="userSpaceOnUse" x="62" y="95" width="159" height="15">
<path d="M221 95.2101H62.2456V109.802H221V95.2101Z" fill="white"/>
</mask>
<g mask="url(#mask0_173_3358)">
<path d="M72.9514 96.6289C72.9514 97.7188 72.522 98.7301 72.1057 99.6886C71.9178 100.503 71.7705 101.436 71.7705 102.46C71.7705 107.031 72.7636 107.517 73.2598 107.517C73.4345 107.517 73.555 107.477 73.7161 107.412C73.7298 107.412 73.7566 107.451 73.7566 107.464C73.7566 107.596 73.555 107.858 73.2467 107.858C71.7168 107.858 70.4016 106.545 70.2406 103.406C69.0865 105.428 67.9055 107.096 67.463 107.096C66.8188 107.096 65.1011 105.796 65.1011 104.325C65.1011 102.526 66.1073 96.6945 66.4699 96.3398C66.6172 96.195 66.7651 96.1428 66.9393 96.1428C67.5435 96.1428 68.2413 96.878 68.2413 97.272C68.2413 97.3511 68.2276 97.3904 68.1876 97.4297C67.6371 97.955 66.5904 102.381 66.5904 104.548C66.5904 105.258 66.7115 105.717 66.993 105.717C67.7445 105.717 69.1402 103.353 70.2943 100.989C70.4685 98.4938 71.0053 95.4464 71.5421 95.4464C72.012 95.4464 72.8304 95.7354 72.9514 96.6289Z" fill="white"/>
<path d="M77.3046 103.327C77.3046 102.027 77.7072 100.608 77.7072 100.162C77.7072 100.07 77.6941 100.018 77.6535 100.018C77.3851 100.018 76.3789 101.856 75.9358 103.852C75.9226 104.903 75.8421 105.717 75.8421 105.717C75.8821 105.757 75.9089 105.875 75.9089 105.993C75.9089 106.177 75.8421 106.387 75.56 106.387C74.9964 106.387 74.0307 105.809 74.0307 105.1C74.0307 104.391 74.4327 103.971 74.4327 100.74C74.4327 99.9647 73.856 99.5315 73.856 99.3474C73.856 99.1633 74.0575 98.9798 74.2317 98.9798C74.3791 98.9798 74.6743 98.9927 75.0101 99.321C75.56 99.8598 75.7884 101.029 75.8958 102.224C76.5131 100.779 77.3314 99.3081 77.8145 99.3081C79.1297 99.3081 79.5186 99.9777 79.5186 100.28C79.5186 100.713 79.2102 102.631 79.2102 104.128C79.2102 105.153 79.3576 105.98 79.8544 105.98C80.619 105.98 80.9948 103.077 81.0353 102.657C81.0485 102.526 81.1021 102.473 81.1827 102.473C81.3437 102.473 81.5852 102.762 81.5852 103.038V103.077C81.4648 104.181 81.2095 106.978 79.5591 106.978C78.204 106.978 77.3183 105.507 77.3183 103.34L77.3046 103.327Z" fill="white"/>
<path d="M84.0952 106.4C83.8536 106.4 83.29 106.111 82.8737 105.704C82.5385 105.376 82.4043 104.168 82.4043 102.946C82.4043 101.528 82.5785 100.07 82.8069 99.8727C82.9143 99.7807 83.0616 99.7414 83.2095 99.7414C83.491 99.7414 83.8268 99.8727 84.0415 100.07C84.1757 100.201 84.2425 100.372 84.2425 100.661C84.2425 100.858 84.1352 100.923 84.1352 100.923C84.1352 100.923 83.8805 102.946 83.8805 104.26C83.8805 104.89 83.9342 105.376 84.122 105.376C84.9672 105.376 85.1819 103.892 85.2624 103.34C85.2624 103.301 85.3161 103.274 85.3966 103.274C85.5577 103.274 85.8261 103.393 85.8261 103.563C85.8261 103.747 85.7992 104.246 85.6382 104.772C85.3698 105.652 84.7525 106.4 84.122 106.4H84.0952ZM83.3568 96.2214C83.5316 96.0508 83.9741 95.8931 84.2026 95.8931C84.7125 95.8931 85.0209 96.287 85.0209 96.7467C85.0209 96.8387 84.9809 96.9044 84.9272 96.9437C84.6988 97.167 84.632 98.1262 83.9878 98.1262C83.7057 98.1262 83.1153 97.7322 83.1153 97.0357C83.1153 96.5632 83.1958 96.3791 83.3705 96.2085L83.3568 96.2214Z" fill="white"/>
<path d="M86.5371 103.091C86.5371 100.411 87.8522 99.3474 89.2342 99.3474C90.0799 99.3474 90.6704 99.7678 90.6704 100.411C90.6704 101.317 90.093 102.46 89.6505 102.46C89.5431 102.46 89.5026 102.394 89.5026 102.316C89.5026 102.289 89.5026 102.237 89.5294 102.224C89.6773 102.066 89.9457 101.475 89.9457 100.595C89.9457 100.188 89.771 99.8598 89.5431 99.8598C89.0731 99.8598 87.9464 100.7 87.9464 103.288C87.9464 104.68 88.6842 105.639 89.6236 105.639C90.9925 105.639 91.3277 103.485 91.3814 102.999C91.3951 102.867 91.435 102.815 91.5156 102.815C91.6766 102.815 91.9319 103.104 91.9319 103.393V103.419C91.8245 104.483 91.3277 106.742 89.4894 106.742C87.6512 106.742 86.5239 105.139 86.5239 103.091H86.5371Z" fill="white"/>
<path d="M100.19 105.231C100.19 105.941 100.472 106.033 100.646 106.033C101.25 106.033 101.76 103.708 101.801 103.261C101.814 103.13 101.867 103.077 101.948 103.077C102.109 103.077 102.35 103.327 102.35 103.603V103.668C102.23 104.732 101.814 106.873 100.432 106.873C98.9424 106.873 98.6203 105.625 98.6203 104.496C98.6203 103.366 99.1034 101.462 99.1034 101.081C99.1034 100.818 98.8619 100.634 98.5666 100.477C98.2714 102.394 97.2783 103.406 96.4463 103.537C96.151 105.284 95.3995 106.676 94.447 106.676C93.6013 106.676 92.3267 105.625 92.3267 103.655C92.3267 101.685 93.0645 99.3867 94.8222 99.3867C95.7347 99.3867 96.3121 99.8598 96.3121 100.385C96.3121 100.726 96.2584 100.91 96.1642 101.002C96.4731 101.147 96.5805 101.541 96.5805 101.922C96.5805 102.25 96.5668 102.578 96.5399 102.894C97.1441 102.775 97.9225 101.856 98.043 100.188C97.6404 99.9911 97.2783 99.7543 97.2783 99.426C97.2783 99.0977 97.7883 98.8614 98.1909 98.8614C98.4593 98.8614 98.6603 98.9663 98.6603 99.2161C98.6603 99.4002 98.6603 99.5837 98.6472 99.7414C99.4249 100.03 100.727 100.569 100.727 101.475C100.727 101.961 100.19 104.456 100.19 105.231ZM95.8021 100.95C95.7884 100.674 95.7079 100.188 95.3459 100.188C94.5007 100.188 93.9639 102.224 93.9639 103.76C93.9639 104.68 94.1518 105.428 94.608 105.428C95.0238 105.428 95.4663 104.378 95.6811 103.393C95.359 103.156 95.1174 102.723 95.1174 102.066C95.1174 101.528 95.4264 101.028 95.8021 100.963V100.95ZM95.829 101.764C95.829 101.764 95.8153 101.935 95.8153 102.079C95.8153 102.145 95.8153 102.197 95.829 102.25V101.764Z" fill="white"/>
<path d="M106.216 103.327C106.216 102.027 106.618 100.608 106.618 100.162C106.618 100.07 106.605 100.018 106.565 100.018C106.296 100.018 105.29 101.856 104.847 103.852C104.834 104.903 104.753 105.717 104.753 105.717C104.793 105.757 104.82 105.875 104.82 105.993C104.82 106.177 104.753 106.387 104.471 106.387C103.908 106.387 102.941 105.809 102.941 105.1C102.941 104.391 103.344 103.971 103.344 100.74C103.344 99.9647 102.767 99.5315 102.767 99.3474C102.767 99.1633 102.968 98.9798 103.143 98.9798C103.29 98.9798 103.585 98.9927 103.921 99.321C104.471 99.8598 104.7 101.029 104.807 102.224C105.424 100.779 106.243 99.3081 106.726 99.3081C108.041 99.3081 108.43 99.9777 108.43 100.28C108.43 100.713 108.121 102.631 108.121 104.128C108.121 105.153 108.269 105.98 108.766 105.98C109.53 105.98 109.906 103.077 109.946 102.657C109.96 102.526 110.027 102.473 110.094 102.473C110.255 102.473 110.496 102.762 110.496 103.038V103.077C110.376 104.181 110.121 106.978 108.47 106.978C107.115 106.978 106.229 105.507 106.229 103.34L106.216 103.327Z" fill="white"/>
<path d="M122.709 104.929C122.709 105.323 122.762 105.599 122.842 105.796H123.03C123.567 105.796 126.077 104.233 126.077 100.845C126.077 97.6402 123.701 95.9588 122.131 95.9588C120.306 95.9588 118.696 97.4954 118.696 100.227C118.696 101.974 119.501 102.762 119.904 102.762C120.306 102.762 120.253 102.591 120.374 102.591C120.682 102.591 120.401 103.077 119.971 103.077C118.683 103.077 116.562 102.46 116.562 99.7942C116.562 97.5874 118.28 95.2101 121.313 95.2101C124.869 95.2101 127.674 97.9028 127.674 101.239C127.674 104.575 125.513 107.412 123.97 107.412C123.42 107.412 122.829 107.123 122.414 106.742C122.065 106.729 121.648 106.61 121.407 106.374C121.018 105.98 120.977 104.982 120.977 104.378C120.977 102.368 121.286 99.0191 122.199 99.0191C123.232 99.0191 123.635 99.4788 123.635 99.6365C123.635 100.043 122.695 100.412 122.695 104.929H122.709Z" fill="white"/>
<path d="M133.443 102.894C133.456 102.762 133.509 102.71 133.59 102.71C133.751 102.71 133.992 102.985 133.992 103.288C133.992 104.64 132.973 106.492 131.496 106.492C129.591 106.492 128.759 104.811 128.759 103.051C128.759 100.477 129.699 99.426 130.96 99.426C130.96 99.0848 131.228 99.0191 131.376 99.0191C132.208 99.0191 132.503 99.5837 132.503 100.713C132.503 102.486 131.269 103.852 130.342 103.852H130.208C130.41 104.548 130.879 105.231 131.778 105.231C132.825 105.231 133.335 104.062 133.443 102.907V102.894ZM131.215 99.9911C130.637 100.109 130.088 101.16 130.088 102.946C130.088 103.051 130.101 103.169 130.101 103.261C130.45 103.222 131.362 102.368 131.362 100.805C131.362 100.398 131.282 100.148 131.215 99.9777V99.9911Z" fill="white"/>
<path d="M135.429 105.967C134.999 105.547 134.878 103.839 134.878 102.224C134.878 99.7414 135.308 96.2742 135.657 95.9324C135.791 95.801 135.939 95.7488 136.1 95.7488C136.596 95.7488 137.147 96.2871 137.147 96.5104C137.147 96.8124 136.22 98.8086 136.22 103.576C136.22 105.35 136.65 105.599 136.838 105.599C137.187 105.599 137.723 104.496 137.884 103.327C137.884 103.288 137.938 103.261 138.019 103.261C138.18 103.261 138.448 103.379 138.448 103.55C138.448 104.076 138.126 106.702 136.891 106.702C136.395 106.702 135.845 106.4 135.415 105.967H135.429Z" fill="white"/>
<path d="M141.051 106.4C140.81 106.4 140.246 106.111 139.83 105.704C139.495 105.376 139.36 104.168 139.36 102.946C139.36 101.528 139.535 100.07 139.763 99.8727C139.87 99.7807 140.018 99.7414 140.166 99.7414C140.447 99.7414 140.783 99.8727 140.998 100.07C141.132 100.201 141.199 100.372 141.199 100.661C141.199 100.858 141.091 100.923 141.091 100.923C141.091 100.923 140.837 102.946 140.837 104.26C140.837 104.89 140.89 105.376 141.078 105.376C141.923 105.376 142.138 103.892 142.219 103.34C142.219 103.301 142.272 103.274 142.353 103.274C142.514 103.274 142.782 103.393 142.782 103.563C142.782 103.747 142.755 104.246 142.594 104.772C142.326 105.652 141.709 106.4 141.078 106.4H141.051ZM140.313 96.2214C140.488 96.0508 140.93 95.8931 141.159 95.8931C141.669 95.8931 141.977 96.287 141.977 96.7467C141.977 96.8387 141.937 96.9044 141.883 96.9437C141.655 97.167 141.588 98.1262 140.944 98.1262C140.662 98.1262 140.072 97.7322 140.072 97.0357C140.072 96.5632 140.152 96.3791 140.327 96.2085L140.313 96.2214Z" fill="white"/>
<path d="M146.808 101.816C146.406 101.331 146.137 100.674 146.137 100.254C146.137 99.4916 146.392 98.8878 146.983 98.8878C147.573 98.8878 147.802 99.6101 147.802 100.188C147.802 100.503 147.694 101.107 147.546 101.83C147.734 101.987 147.936 102.079 148.11 102.079C148.257 102.079 148.432 102 148.539 102C148.579 102 148.62 102.013 148.62 102.079C148.62 102.276 148.378 102.526 148.003 102.526C147.815 102.526 147.64 102.473 147.453 102.368C146.996 104.312 146.177 106.729 145.453 106.729C145.198 106.729 144.728 106.584 144.527 106.387C143.668 105.56 143.494 102.316 143.494 100.595C143.494 99.8856 143.252 99.912 143.252 99.7678C143.252 99.6493 143.306 99.6101 143.494 99.6101C143.776 99.6101 145.077 99.912 145.077 100.661V101.239C145.077 104.233 145.091 105.547 145.533 105.547C145.976 105.547 146.54 103.366 146.822 101.816H146.808Z" fill="white"/>
<path d="M153.355 102.894C153.368 102.762 153.421 102.71 153.502 102.71C153.663 102.71 153.905 102.985 153.905 103.288C153.905 104.64 152.885 106.492 151.408 106.492C149.503 106.492 148.671 104.811 148.671 103.051C148.671 100.477 149.611 99.426 150.872 99.426C150.872 99.0848 151.14 99.0191 151.288 99.0191C152.12 99.0191 152.415 99.5837 152.415 100.713C152.415 102.486 151.181 103.852 150.255 103.852H150.121C150.322 104.548 150.792 105.231 151.691 105.231C152.737 105.231 153.247 104.062 153.355 102.907V102.894ZM151.127 99.9911C150.55 100.109 150 101.16 150 102.946C150 103.051 150.013 103.169 150.013 103.261C150.362 103.222 151.274 102.368 151.274 100.805C151.274 100.398 151.194 100.148 151.127 99.9777V99.9911Z" fill="white"/>
<path d="M156.347 104.299C156.347 103.143 156.643 101.265 156.643 100.884C156.643 100.569 156.146 100.346 155.61 100.148C155.556 102.197 155.354 103.642 155.354 103.642C155.354 103.642 155.354 103.695 155.288 103.695C155.113 103.668 154.804 103.524 154.804 103.353V103.327C154.804 103.327 154.992 102.04 155.032 99.912C154.59 99.7414 154.254 99.5315 154.254 99.2425C154.254 98.9535 154.697 98.7565 155.086 98.7565C155.381 98.7565 155.65 98.8743 155.65 99.1634V99.5972C156.575 99.9255 158.266 100.437 158.266 101.12C158.266 101.606 157.958 104.273 157.958 105.048C157.958 105.77 158.105 106.033 158.293 106.033C159.179 106.033 159.474 103.209 159.501 102.894C159.514 102.762 159.554 102.723 159.635 102.723C159.796 102.723 160.051 103.012 160.051 103.301V103.327C159.984 104.378 159.581 106.676 158.146 106.676C156.709 106.676 156.374 105.428 156.374 104.286L156.347 104.299Z" fill="white"/>
<path d="M163.983 100.24C163.983 99.9648 164.05 99.715 164.386 99.715C164.654 99.715 165.284 100.372 165.284 100.858C165.284 101.317 165.177 102.289 165.177 103.34C165.177 103.695 165.177 104.036 165.204 104.351C166.009 103.327 166.586 102.276 166.586 101.895C166.586 101.764 166.68 101.672 166.761 101.672C166.908 101.672 167.096 101.895 167.096 102.5C167.096 103.104 166.237 104.036 165.231 105.034C165.258 105.481 165.284 105.954 165.284 106.519C165.284 108.423 164.533 109.802 162.815 109.802C162.064 109.802 161.366 109.211 161.366 108.738C161.366 108.265 161.903 107.701 163.835 105.809C163.889 105.113 163.929 104.286 163.929 103.353V103.183C163.554 104.654 162.99 106.505 162.453 106.505C161.272 106.505 160.695 105.586 160.695 104.365C160.695 102.736 161.138 100.215 161.554 100.215C161.97 100.215 162.627 100.49 162.627 101.055C162.627 101.344 162.077 102.368 162.077 104.759C162.077 105.56 162.252 105.757 162.48 105.757C162.949 105.757 163.956 101.095 163.956 100.7V100.254L163.983 100.24ZM163.781 106.532C162.963 107.438 162.399 108.318 162.399 108.725C162.399 108.83 162.493 108.896 162.641 108.896C163.178 108.896 163.58 108.121 163.795 106.532H163.781Z" fill="white"/>
<path d="M177.339 96.2085C178.104 95.4598 179.446 95.2236 180.707 95.2236C182.653 95.2236 183.646 95.8145 183.646 97.7715C183.646 100.595 181.74 102.67 180.587 102.67C180.036 102.67 179.714 102.408 179.714 102.276C179.714 102.237 179.755 102.211 179.835 102.211C180.815 102.211 181.808 99.8728 181.808 97.8636C181.808 96.6289 181.365 96.1165 180.734 96.1165C179.312 96.1165 177.017 98.7301 177.017 101.646C177.017 104.562 182.492 102.999 182.492 104.903C182.492 106.348 180.855 107.267 180.117 107.267C179.03 107.267 177.433 106.519 177.433 106.006C177.433 105.717 177.634 105.494 177.835 105.494C178.037 105.494 177.983 106.308 179.312 106.308C180.358 106.308 180.895 105.652 180.895 104.969C180.895 104.036 175.407 104.719 175.407 101.501C175.407 99.3082 176.038 97.4825 177.352 96.2085H177.339Z" fill="white"/>
<path d="M188.69 102.894C188.703 102.762 188.757 102.71 188.837 102.71C188.998 102.71 189.24 102.985 189.24 103.288C189.24 104.64 188.22 106.492 186.744 106.492C184.839 106.492 184.007 104.811 184.007 103.051C184.007 100.477 184.946 99.426 186.207 99.426C186.207 99.0848 186.476 99.0191 186.623 99.0191C187.455 99.0191 187.751 99.5837 187.751 100.713C187.751 102.486 186.516 103.852 185.59 103.852H185.456C185.657 104.548 186.127 105.231 187.026 105.231C188.073 105.231 188.583 104.062 188.69 102.907V102.894ZM186.462 99.9911C185.886 100.109 185.335 101.16 185.335 102.946C185.335 103.051 185.349 103.169 185.349 103.261C185.698 103.222 186.61 102.368 186.61 100.805C186.61 100.398 186.529 100.148 186.462 99.9777V99.9911Z" fill="white"/>
<path d="M191.669 104.299C191.669 103.143 191.964 101.265 191.964 100.884C191.964 100.569 191.468 100.346 190.931 100.148C190.878 102.197 190.677 103.642 190.677 103.642C190.677 103.642 190.677 103.695 190.609 103.695C190.435 103.668 190.126 103.524 190.126 103.353V103.327C190.126 103.327 190.314 102.04 190.355 99.912C189.911 99.7414 189.576 99.5315 189.576 99.2425C189.576 98.9535 190.019 98.7565 190.408 98.7565C190.703 98.7565 190.972 98.8743 190.972 99.1634V99.5972C191.898 99.9255 193.588 100.437 193.588 101.12C193.588 101.606 193.28 104.273 193.28 105.048C193.28 105.77 193.427 106.033 193.615 106.033C194.501 106.033 194.796 103.209 194.823 102.894C194.836 102.762 194.877 102.723 194.957 102.723C195.118 102.723 195.373 103.012 195.373 103.301V103.327C195.306 104.378 194.904 106.676 193.467 106.676C192.032 106.676 191.696 105.428 191.696 104.286L191.669 104.299Z" fill="white"/>
<path d="M199.345 101.816C198.942 101.331 198.674 100.674 198.674 100.254C198.674 99.4916 198.929 98.8878 199.519 98.8878C200.11 98.8878 200.338 99.6101 200.338 100.188C200.338 100.503 200.231 101.107 200.083 101.83C200.271 101.987 200.472 102.079 200.647 102.079C200.794 102.079 200.969 102 201.076 102C201.116 102 201.156 102.013 201.156 102.079C201.156 102.276 200.915 102.526 200.539 102.526C200.351 102.526 200.177 102.473 199.989 102.368C199.533 104.312 198.714 106.729 197.989 106.729C197.735 106.729 197.265 106.584 197.064 106.387C196.205 105.56 196.031 102.316 196.031 100.595C196.031 99.8856 195.789 99.912 195.789 99.7678C195.789 99.6493 195.843 99.6101 196.031 99.6101C196.312 99.6101 197.614 99.912 197.614 100.661V101.239C197.614 104.233 197.627 105.547 198.07 105.547C198.513 105.547 199.077 103.366 199.358 101.816H199.345Z" fill="white"/>
<path d="M203.114 106.4C202.873 106.4 202.309 106.111 201.893 105.704C201.558 105.376 201.423 104.168 201.423 102.946C201.423 101.528 201.598 100.07 201.826 99.8727C201.933 99.7807 202.081 99.7414 202.229 99.7414C202.511 99.7414 202.846 99.8727 203.061 100.07C203.195 100.201 203.262 100.372 203.262 100.661C203.262 100.858 203.155 100.923 203.155 100.923C203.155 100.923 202.9 102.946 202.9 104.26C202.9 104.89 202.953 105.376 203.141 105.376C203.986 105.376 204.201 103.892 204.281 103.34C204.281 103.301 204.335 103.274 204.416 103.274C204.577 103.274 204.845 103.393 204.845 103.563C204.845 103.747 204.818 104.246 204.657 104.772C204.389 105.652 203.772 106.4 203.141 106.4H203.114ZM202.376 96.2214C202.551 96.0508 202.994 95.8931 203.222 95.8931C203.732 95.8931 204.04 96.287 204.04 96.7467C204.04 96.8387 204 96.9044 203.946 96.9437C203.718 97.167 203.651 98.1262 203.007 98.1262C202.725 98.1262 202.135 97.7322 202.135 97.0357C202.135 96.5632 202.215 96.3791 202.39 96.2085L202.376 96.2214Z" fill="white"/>
<path d="M205.557 103.091C205.557 100.411 206.871 99.3474 208.254 99.3474C209.099 99.3474 209.689 99.7678 209.689 100.411C209.689 101.317 209.113 102.46 208.67 102.46C208.562 102.46 208.522 102.394 208.522 102.316C208.522 102.289 208.522 102.237 208.549 102.224C208.696 102.066 208.965 101.475 208.965 100.595C208.965 100.188 208.791 99.8598 208.562 99.8598C208.093 99.8598 206.965 100.7 206.965 103.288C206.965 104.68 207.703 105.639 208.643 105.639C210.011 105.639 210.347 103.485 210.401 102.999C210.414 102.867 210.455 102.815 210.535 102.815C210.696 102.815 210.951 103.104 210.951 103.393V103.419C210.844 104.483 210.347 106.742 208.508 106.742C206.67 106.742 205.543 105.139 205.543 103.091H205.557Z" fill="white"/>
<path d="M216.452 102.894C216.466 102.762 216.52 102.71 216.6 102.71C216.761 102.71 217.003 102.985 217.003 103.288C217.003 104.64 215.983 106.492 214.507 106.492C212.601 106.492 211.769 104.811 211.769 103.051C211.769 100.477 212.708 99.426 213.97 99.426C213.97 99.0848 214.238 99.0191 214.386 99.0191C215.218 99.0191 215.513 99.5837 215.513 100.713C215.513 102.486 214.279 103.852 213.353 103.852H213.218C213.42 104.548 213.889 105.231 214.789 105.231C215.835 105.231 216.345 104.062 216.452 102.907V102.894ZM214.225 99.9911C213.648 100.109 213.098 101.16 213.098 102.946C213.098 103.051 213.111 103.169 213.111 103.261C213.46 103.222 214.373 102.368 214.373 100.805C214.373 100.398 214.292 100.148 214.225 99.9777V99.9911Z" fill="white"/>
</g>
</g>
<defs>
<clipPath id="clip0_173_3358">
<rect width="221" height="110" fill="white"/>
</clipPath>
</defs>
</svg>
